<svg id="Layer_1" data-name="Layer 1" xmlns="http://www.w3.org/2000/svg" viewBox="0 0 517.23 383.57"><defs><style>.cls-1,.cls-2{fill:#aabc10;}.cls-1,.cls-26,.cls-35{fill-rule:evenodd;}.cls-19,.cls-23,.cls-3{font-size:6.84px;font-family:Calibri-Bold, Calibri;font-weight:700;}.cls-3,.cls-36{fill:#fff;}.cls-4{letter-spacing:-0.04em;}.cls-5{letter-spacing:-0.02em;}.cls-6{letter-spacing:-0.01em;}.cls-7{letter-spacing:-0.01em;}.cls-8{letter-spacing:-0.04em;}.cls-9{letter-spacing:-0.01em;}.cls-10{letter-spacing:-0.01em;}.cls-11{letter-spacing:0em;}.cls-12{letter-spacing:-0.01em;}.cls-13{letter-spacing:-0.02em;}.cls-14{letter-spacing:-0.03em;}.cls-15{letter-spacing:-0.01em;}.cls-16{letter-spacing:-0.01em;}.cls-17{letter-spacing:-0.01em;}.cls-18,.cls-23{fill:#0b1e51;}.cls-19,.cls-24{fill:#070606;}.cls-20{letter-spacing:-0.04em;}.cls-21{letter-spacing:-0.01em;}.cls-22{letter-spacing:-0.01em;}.cls-25{letter-spacing:-0.01em;}.cls-26{fill:#b0a9a1;}.cls-27{letter-spacing:-0.02em;}.cls-28{letter-spacing:-0.01em;}.cls-29{letter-spacing:-0.01em;}.cls-30{letter-spacing:-0.06em;}.cls-31{letter-spacing:0em;}.cls-32{letter-spacing:-0.01em;}.cls-33{letter-spacing:-0.01em;}.cls-34{letter-spacing:-0.01em;}.cls-35{fill:#f27402;}.cls-37{letter-spacing:-0.05em;}.cls-38{letter-spacing:-0.01em;}</style></defs><g id="washington-locations"><g id="washington"><path class="cls-1" d="M62.71.66c1.71-.09,2,.06,2.29.68.56.28.4.24.68,1.14l-1.37-.23c-.79.33-.52.28-1.6.23V.66Z"/><path class="cls-1" d="M71.38,70.93l.69,2c-.87.13-1.23-.14-.92.46-.78.61-.63,1.76-.22,2.73-1.82.48-.11,1.14-1.37,2.5-.52.56-1.86.69-2.74,1.59-.58.6-.31,2-.91,3-2.8,4.35-3.27,5.63-5.48,12.05h1.15a2,2,0,0,1,.22-.91c.8.17,2.94,1.13,3.2,0l-3.2-.91c-.07-.38-.15-.76-.22-1.14C65,89.75,66.14,78.78,73,77.75c.07.82-.14.11.45.68.26-.78,1.44-.86,2.28-1.36,0-4.52,3-9.09,4.79-9.33.29.35-.12-1.62.69-1.13.72-1.68,1.7,0,.91-1.82C81.6,63.6,81,63.08,81,61.6h.68v1.14h2.28a30.84,30.84,0,0,0,1.6,5.91l.68-.22v.9l-.91.69a25,25,0,0,1,1.14,2.5l-.23.23h-3c.15.53.3,1.06.46,1.59.46.54.59.17,1.59.45-.05,3.93,0,3.8,0,6.37.58.71.41.21.91.91-.9,0-1.1.58-1.59,0-1.2-.38,0-.39-1.14-.68a9.66,9.66,0,0,1,0,3.86,2.16,2.16,0,0,1,2.28.46c-2.54,1.28-1.87,8.72-3.19,10.23a.87.87,0,0,0,.22,1.14,1.47,1.47,0,0,0,.92,1.36l-1.6,1.82c-.84-.61-.14-.77-1.82-.91V100a2.4,2.4,0,0,1,1.82,1.81c-.91.23-.11-.07-.68.69l-.46-.23c-.35-1.47-1.69-1.77-1.6-3.87l-1.59.23c.28-2.71,1.63-3.49,3-5.68h-.68c-.22.36-1.14,1-1.6.68-2.28,1.84-2.54,4.15-2.74,6.14.47.14,1.78.78,1.14,2,1.83-.17,2.74-.14,3,1.37L78,103.9c-.09-.64-1.44-1.17-2.28-.23V105l-1.14-.23c0-1.19-1.22-2.64-2-3.64.44-2,3.37-5.33.23-8.18v3.86c-1,.18-.51-.38-.91.68a13.63,13.63,0,0,1-.69,1.82c-.43,1.3,1.24,2.75.46,5.92,1.14.1.29.08.91,1.13h.23c.1-1.3-.2-1,.91-1.36.23,2,2.1,2.3,3,4.09.82-.22,1.17.05,1.59-.45,1.46-.22,6.51-8.61,5.48-11.83,2.39.61,2.24,2.65,4.1,2.73l.91-.68V98H87.35c.74-1.2,2.91-3.24,4.33-2.5.14-.67-.24-.25.45-.68-.58-2.1-.59-4.15-1.59-5-.38-.65-.33-.29-.91-.45.58-1.11,1-1.73.68-3-1.13-.19-1.64-4-1.6-4.09a3.38,3.38,0,0,1,1.14-1.14c.45.69.08.24.69.46a1.63,1.63,0,0,0,.91-.23c-.25-.82.08-1.68-.91-1.37-.4-.65-1.86-.38-1.83-1.59-.62-.52-.45-.82-.68-1.59.75-.49.62-.4.68-1.59,1.05,0,.59.11,1.37-.23-2.18-7.39,3.87-10,2.51-14.1a10,10,0,0,0,3.19-1.14c-.44-1.38-.3-1.88-.22-2,.07-.81.45-.79,1.14-.69-.08-.38-.16-.75-.23-1.13l-1.14.68c-1-2.52-7.18-3.93-4.79-8.64-.22-1-1-1.13-.23-2.5l-2.74-.69-.45.23c.28.86.58,1.29,0,2.28H86.2c.22,3.86,3.34,5.72,4.57,8-2.81-1.54-2.44-3.29-6.39-5a40.24,40.24,0,0,0-.46-6.14h.69c.53-.76.84-.61,1.82-.23.16-.45.31-.91.46-1.36l2.28,1.59v-.45l.46.22c-.2-.94-.69-4.32-.69-4.32-.66-.77-4.5-1.5-4.79-2.27-1.49-1.49-.48-2.75-1.14-4.55-.6.56-.35.31-.45.91-.86.39-1.55.47-1.83,1.14-1.4-.22-1.15-.39-2.28-.91L79.14,32c-.13-1.31-.47-1.18-1.15-2.28,1.07-.72,3.31-1.42,3.65-1.13-.82.4,0,1.48,0,2h.69c-.07-1.17.42-.15.68-1.13.64.67.39,1.6,1.37,2,.32.32.82.23,1.6.46-.19-1.81-.94-5.25-.69-6.14-.88,0-.94-.22-2.51-.23.08-.23.16-.45.23-.68a6.9,6.9,0,0,1,3.88,1.59c.67-1.68.75-1.52,1.37-3-1.42-.44-1.52-2.58-3.65-3.41V20c1.1-.33.72-.24,1.14-1.14-1-.44-1.47-.71-.91-1.14.1-.85.16-.94.91-1.82l-.91-1.59a1.44,1.44,0,0,1-1.37-.91c-2.11.8-2.2,1.08-3.65,3,.08.3.15.6.23.91.91-.09.14-.49.91,0l-.23.45h.46c-.15.31-.31.61-.46.91-.68-.56-.58-.5-.68-1.14a2.55,2.55,0,0,1-1.37-2c.65,0,.54-.41.68-1.14.18-1-.3-1.26-.45-1.82l-1.37-.23c-.1.61.14.35-.46.91a6.3,6.3,0,0,0-.23-3.86,5.11,5.11,0,0,1-3-2.5c1.28,0,1.07-1,1.82-.69.08-.53.16-1.06.23-1.59L75,4.29,73.66,5c-.44-.68-.06,0-.68-.46C73.59,0,79.47.65,86.89.66H294c.05,36.27-.45,70.07-.45,106.88,0,11.31,1.57,38.17-1.14,42.53a22.32,22.32,0,0,0,2.73,2.72c.16,1.55,1.66,7.09,2.51,7.28-.09,2.44-.55,2.85-2.05,4.55.47,1.09,1.71.79,1.37,1.59,1,1,.55,2.33,1.14,3.19v.22l-58.61-.22c-3.28,0-19.92-.1-20.53.45-1.61.81-3.82,2.87-5.24,3.87h-.46c-2.12.38-2.66-.65-3.87-1.14-1.74-.71-4.93,1.35-6.39,1.82-3.12,1-6.6-1.34-7.3-.23-2,.3-3.09,3-5,3.87-2.19,1-5.92.81-8.43,1.36l-.69-.23-.45.46c-1.66.22-14,8.76-18.7,6.82-1.56-.64-2.67-2.27-4.34-3-.73-.3-11.56,4.4-12.08,6.14-3.19-1.41-8.41-1.58-9.58,1.82l-.46-.45c-.9-.64-1-2.83-2-3.18-1.94-3.69-15.58-1.75-22.58-1.82h-.91c-3.94,2.55-7.1,4.7-11.18,6.36,0,0-2.5.69-4.33,1.37-.26.1-1.49,1-2.51.45-2.12-1.16-7.48-1.35-10-3L79.14,191l-4.34-3.41c.31-1.37.61-2.73.91-4.1-2.95-5.49-2.66-18.69-7.07-18.87l-1.36-.91c-.41.31-.68-1.13-.69-1.14l-5.24-2.95-.46-.23c-1,.33-.8-.63-1.14.23-1.54.29-4.7,3.88-8,1.59l-1.37-1.59c-.48-.47-.37-.4-.46-1.37h.23l.91.46v-.23c-.16-.31-1.74-3.84-2.73-3.41-.61-.52-8.44,1.48-7.76-.91-.84-.59-.47-.8-1.36-1.37-.26.52-7.07,3.9-7.53,3.19-2.08-1.43-2.25-2.19-4.11-3.64-1.08,1-1,2.15-2.28,2,.08.15.16.3.23.45V133.69l.46-.23c.61,2.78,2.46,8.91,1.59,15a2.28,2.28,0,0,1,2.29.46c.06-2.64-1-4-1.83-4.09a5.55,5.55,0,0,0,.46-2.73c.88.59,1,1.08,1.82,1.59A2.7,2.7,0,0,1,32.16,141c-.9-2.92-1.92-3.12-2.51-6.14l.23-.46c.07.38.15.76.22,1.14h.69a3.59,3.59,0,0,1,.68-2.73c.16-1.17,1.73-.62,2.51-2.73-1.18-.17-1.18-.5-1.82-1.59l-.92,1.37-2-.46c-.07.53-.15,1.06-.23,1.59-1.54-.24-4.45-1.59-4.33-2.5-1.12-1-1.37-8.41-1.37-8.41.11-.55,0-.29.46-.91.44.56.13.09.23.68a2.09,2.09,0,0,1,.91.23l-.69,1.59.46.45c.75-.25.78,0,1.14-.45.93-.7.14-1.84,1.82-1.59l-.45-.91c2.84.23,5.92-2.69,7.3-2-1-1.37-3.88-.91-3.88-.91v-.91l-3,.23c.08-.15.16-.3.23-.46h-.45l.45-1.59c-1.55-.7-3.89-.74-5.24-1.13.18,1.32,0,4.59,1.59,5.23-.07.22-.15.45-.22.68-1.65-.92-1.21.63-2.74.23.05-3.43-.91-16.38-.91-16.38A8.42,8.42,0,0,1,18.93,98c-.79-.29-1-.3-1.37-.68C14.19,94.09,16.05,86.14,13.91,80c-.4-1.14-1.62-6.53-1.82-6.82L9.81,70.93c-.45-1.22.25-2-.23-2.5-2-.24-2.52-1.6-3.42-3.19l-1.6.23C4.48,64.67.36,49.52,0,49.32c1.19-2.12,2.29-3,.91-5.46H2.05C2,43,1.9,42.05,1.82,41.14c1.29-.19.5.16,1.14-.91V39.09c-2.49-.2-1.3-1.65-3-2.5.08-.15.15-.31.23-.46l3.65-.23c.07.46.15.91.22,1.37,2-.38,12,5.3,12.78,6.59,3.07-.94,4.84,1.83,6.15,1.6s1.25,1.58,1.14,1.59c.88.66,3.18.86,4.34,1.82h.22l.23-.23c3.78,0,5.6.56,9.13.23l1.14.22c.45-.27,0-.52.68-.22l.46-.23c.74.32,1.84,2.27,3.64,1.59.22-.08,2-.53,1.37-.23l.23-.22c.31.22.61.45.91.68,0,0,9.92,2.17,10.72.91,1-.09,3.32-2.58,3.65-3.41l.46.45a5.45,5.45,0,0,0-.69,1.14h.69l.23-.46A19.82,19.82,0,0,0,65,53.42c.87-.33,4-1.48,4.56,0-.64.43-.14.41-.46,1.13,1.07.39,2.32,1,2.05,1.59.86.74.48,1.13,0,2.28l.46-.23.23.23c.44-.56.13-.09.23-.68.58-.43.59-.93.68-2.28a7.75,7.75,0,0,1-2.51-1.82c.45-.67,1-.64.23-1.13,1.26-1.4,2.53-2.08,5.24-2.73v.45c-.65.32-.19.88-.22,1.82-.35,0-.89.87-1.6.68.61,1.22,1.22,2.43,1.82,3.64l.69-.23c-.51-1.36-.73-3.49,1.14-3.18.44-.67.06,0,.68-.45,0,1.43.68,4.22.46,4.32v.68H77.54c-.23-.91.07-.12-.69-.68-.07.3-.15.6-.22.91.52,1.06.24,1.11.91,1.59.46,1,1.48,1.47.91,3.41h.91c.1-.59-.22-.12.23-.68-.07.68-.15,1.36-.23,2a4.73,4.73,0,0,1,1.37.46c-.38.68-.38.55-.45,1.14l-.92.45c-.58-.27-.66-.42-1.37-.23.16.61.31,1.22.46,1.82-1.28.23-.92,1.31-2.28,1.14,0,4-2,4.26-1.37,7.05-.9.07-.92,0-1.59.45a66.68,66.68,0,0,1,.68-8.86"/><path class="cls-1" d="M69.79,14.07c.37.38.76.76,1.14,1.14-.08.15-.16.3-.23.46l-.23-.23c-1.11-.11-.88,0-1.37-.91l.69-.46Z"/><path class="cls-1" d="M76.85,15.21a16.53,16.53,0,0,1,4.57,6.14c-2.08-.78-3.8-3.46-4.57-4.78V15.21Z"/><path class="cls-1" d="M65.68,16.8c1,.95.16,2-.23,2.73l-.68-.23c-.22-1.26-.28-.27-1.14-1.36a3.14,3.14,0,0,0,2.05-1.14Z"/><path class="cls-1" d="M68.42,17.48c3.81,0,5.88,1.28,7.52,3.19v.23a3,3,0,0,0-2,3l-1.14.23c-.34-1.52-.85-2.35-2-2.73v.91c.6.27.63.6.91,1.59A6.31,6.31,0,0,0,68.42,27a2.83,2.83,0,0,1-1.37-.69c-.72-.09-.28-.41-.46-1.13-.73-.1-.7.39-.91-.69.68-.1.3-.39.68-1.13l-.45-.46-.91.23v-.91c.81-.42,3.54-4.52,3.42-4.78Z"/><path class="cls-1" d="M80.73,18.62h0Z"/><path class="cls-1" d="M56.79,18.85l.22.45-.22-.45Z"/><path class="cls-1" d="M57.24,18.85a5.48,5.48,0,0,1,2.51.91l.46-.23c-.54.74-.24.62-1.14.46-.39.24,0,.16-.46,0l-1.37-.69v-.45Z"/><path class="cls-1" d="M64.54,19.53h0Z"/><path class="cls-1" d="M60.21,20l.22.45L60.21,20Z"/><path class="cls-1" d="M60.89,20.21c.08.15.15.31.23.46h-.46c.08-.15.16-.31.23-.46Z"/><path class="cls-1" d="M60,20.9c.07.15.15.3.23.45-.08-.15-.16-.3-.23-.45Z"/><path class="cls-1" d="M60.43,21.12c.08.15.16.31.23.46h-.45l.22-.46Z"/><path class="cls-1" d="M60.89,21.35c.82.41.27-.12.69.68h-.23c-.16-.22-.31-.45-.46-.68Z"/><path class="cls-1" d="M78.22,22.26l1.14.45v.69l-.45-.23c-.68-.08-.77.13-1.37-.68.71-.12.2.31.68-.23Z"/><path class="cls-1" d="M65.68,28.85c0,1.86.2,2.39.91,2.73.35.76.57,0,1.14.91-3-.34-7.86-2-7.52-5.45,0,0-.34-.94-.92-.69.39-.79.08-.91.69-.91-.39-.75.33-.45-.69-.91-.45.66,0-.16-.91.23.31-.68.61-1.36.91-2.05.48.45.24.09.46.91a6.26,6.26,0,0,1,2.74-1.13c.07.22.15.45.22.68-.65.31-.14.55,0,1.36,1.36,0,3.77,2.69,4.57,4.32Z"/><path class="cls-1" d="M77.08,23.4c.94.77.88,1.6,1.83,2-.52,1-.47,2-1.83,1.82l-.45.23c.06-1.46-.08-1.39-.69-2.73,1-.22.73-.49,1.14-1.36Z"/><path class="cls-1" d="M73.43,24.53h.46c0,.16,1.47,1.84.91,2L73.66,28l-.45-.23c0-1.42-.38-.78-.69-2.5a1,1,0,0,0,.91-.69Z"/><path class="cls-1" d="M79.82,24.53c1.07,1.36,1.68,1.39,2.51,2.51.07.37.15.75.23,1.13-1.5-.47-1.4-.31-2.74.23-.12-1.34-.47-2.54,0-3.87Z"/><path class="cls-1" d="M70.47,25.44a6,6,0,0,0,1.6,2c-1.33,1.93.7,3.25-.23,5.23l.68-.45A1.85,1.85,0,0,0,73,30.9c.71.67.32,2.87.91,2.5-.54.83-2.15.89-3.19,1.14.07-.53.15-1.06.23-1.59-1.94-.05-1.36-.39-2.51-.91.07-2.84,1.06-3.56.68-5.23,1.1,0,.48,0,1.37-.23V25.44Z"/><path class="cls-1" d="M73.66,28.17l.69.46-1.14,1.82c-.23-1.05-.17-.9-.92-1.37.08-.15.16-.3.23-.45l1.14-.46Z"/><path class="cls-1" d="M77.54,30h0Z"/><path class="cls-1" d="M80.5,35l1.83.68c-.15.83-.31,1.67-.46,2.5l.69-.23s2.29,2.5,2.28,2.5c.07.38.15.76.22,1.14l-.68.68c-.72-.12-.69.23-1.14-.22-.89-.18-.15-.09-.91-.69L81,41.59c-.64,1.82-1.94,3.62-4.33,3.18.23.89.17,1.38.68,1.14l2.74-.68C81.6,47.28,85,54.47,83.7,57.51l.91-.23c-.15-1.59-.31-3.18-.46-4.77,3.28.62,3.23,2.88,6.39,4.09.11,3.89,1.11,5.34-.69,7L87.57,63c-.63-.9.55-3.09-.91-3.87-.63-.33-3.47.93-3,.68-.57-.27-.23.15-.46-.45.48-.47.37-.4.46-1.37l-.46.23-1.6-.91c-.18-2-1.34-4.16-.22-7.5-.7-.45-.24-.08-.46-.69-1.18.18-1.59-.28-2.51.46h-.23a7.33,7.33,0,0,0-.23-2L74.8,45.91c.91-3.42,5-7.91,4.11-10.46L80.5,35Z"/><path class="cls-1" d="M62,47.5h.68l-.45.46L62,47.5Z"/><path class="cls-1" d="M61.35,47.73l.68.46-.68-.46Z"/><path class="cls-1" d="M49.72,49.78l1.36.45v.23c-1.08,0-1.51,0-2-.46.71-.12.21.31.69-.22Z"/><path class="cls-1" d="M91.45,56.83c.66.12,1.12-.18.68.45l.46.23c-1-.2-.68,0-1.14-.68Z"/><path class="cls-1" d="M92.59,57.51l.23.45-.23-.45Z"/><path class="cls-1" d="M83.92,82.75c.08.15.16.3.23.46-.07-.16-.15-.31-.23-.46Z"/><path class="cls-1" d="M84.84,83.89h0Z"/><path class="cls-1" d="M85.75,83.89c.23.68.16.61-.23,1.14-.07-.23-.15-.46-.23-.69l.46-.45Z"/><path class="cls-1" d="M86,85.94c.72.29.52-.07.91.45,1,2.1.42,3.84.91,5.69a2.13,2.13,0,0,1,2.51.91c-2.26.17-1.84,1.06-3.42,2.5L86.2,95V93.89c1.17-.41.67-.28,1.15-.9l-1.6.22a4.1,4.1,0,0,1-.46,3l-.23-.46c-.67-.13-.24.24-.68-.45C83.43,92.09,85.9,89,86,85.94Z"/><path class="cls-1" d="M78.68,98.9h.46c-.4.22-.06.21-.46,0Z"/><path class="cls-1" d="M77.31,103.9l1.6.68v1.82c-.8,0-.87-.16-1.14,1.37L75.94,106c.56-.3,1.45-1.4,1.37-2Z"/><path class="cls-1" d="M73,104.36l.45.45-.45-.45Z"/><path class="cls-1" d="M29.19,130.74h0Z"/><path class="cls-1" d="M27.14,153.48l.45.91h-.22l-.69-.23.46-.68Z"/><path class="cls-1" d="M27.59,154.39c-.16.21,0,.35-.45.22l.45-.22Z"/><path class="cls-1" d="M28.05,154.84c-.16.22,0,.36-.46.23l.46-.23Z"/></g><rect class="cls-2" x="57.87" y="69.7" width="34.8" height="39.3"/><g id="ycup-pdx"><text class="cls-3" transform="translate(80.8 151.13)"><tspan class="cls-4">Y</tspan><tspan x="3.29" y="0">CUP </tspan><tspan x="1.73" y="6.84">P</tspan><tspan class="cls-5" x="5.37" y="6.84">D</tspan><tspan x="9.51" y="6.84">X </tspan></text></g><g id="southeastern-washington-chapter"><text class="cls-3" transform="translate(220.48 135.73)">Southea<tspan class="cls-6" x="23.43" y="0">s</tspan><tspan class="cls-7" x="26.08" y="0">t</tspan><tspan x="28.37" y="0">ern</tspan><tspan class="cls-8" x="2" y="6.84">W</tspan><tspan x="7.95" y="6.84">ashin</tspan><tspan class="cls-9" x="23.07" y="6.84">g</tspan><tspan class="cls-10" x="26.26" y="6.84">t</tspan><tspan x="28.56" y="6.84">on</tspan><tspan x="7.72" y="13.67">Cha</tspan><tspan class="cls-11" x="18.38" y="13.67">p</tspan><tspan class="cls-12" x="22.03" y="13.67">t</tspan><tspan x="24.31" y="13.67">er</tspan></text></g><g id="olympic-peninsula-chapter"><text class="cls-3" transform="translate(21.16 63.66)">Olympic <tspan class="cls-13" x="-2.06" y="6.84">P</tspan><tspan x="1.47" y="6.84">eninsula</tspan><tspan x="0.42" y="13.67">Cha</tspan><tspan class="cls-11" x="11.09" y="13.67">p</tspan><tspan class="cls-12" x="14.73" y="13.67">t</tspan><tspan x="17.01" y="13.67">er</tspan></text></g><g id="evergreen-chapter"><text class="cls-3" transform="translate(40.9 112.87)"><tspan class="cls-14">E</tspan><tspan class="cls-15" x="3.16" y="0">v</tspan><tspan x="6.33" y="0">e</tspan><tspan class="cls-16" x="9.77" y="0">r</tspan><tspan x="12.12" y="0">g</tspan><tspan class="cls-6" x="15.36" y="0">r</tspan><tspan x="17.72" y="0">een</tspan><tspan x="2.9" y="8.2">Cha</tspan><tspan class="cls-11" x="13.56" y="8.2">p</tspan><tspan class="cls-12" x="17.21" y="8.2">t</tspan><tspan x="19.49" y="8.2">er</tspan></text></g><g id="spokane-chapter"><text class="cls-3" transform="translate(234.69 51.03)">Spo<tspan class="cls-7" x="10.58" y="0">k</tspan><tspan x="13.77" y="0">ane</tspan><tspan x="0" y="8.2">Cha</tspan><tspan class="cls-11" x="10.66" y="8.2">p</tspan><tspan class="cls-12" x="14.3" y="8.2">t</tspan><tspan x="16.59" y="8.2">er</tspan></text></g><g id="northwest-corner-chapter"><text class="cls-3" transform="translate(94.97 17.51)">Nort<tspan class="cls-17" x="12.98" y="0">hw</tspan><tspan x="21.64" y="0">e</tspan><tspan class="cls-6" x="25.08" y="0">s</tspan><tspan x="27.73" y="0">t</tspan><tspan x="-6.59" y="6.84">Corner Cha</tspan><tspan class="cls-11" x="24.89" y="6.84">p</tspan><tspan class="cls-12" x="28.53" y="6.84">t</tspan><tspan x="30.81" y="6.84">er</tspan></text></g><g id="kitsap-county-chapter"><text class="cls-3" transform="translate(66.92 81.99)">Kitsap<tspan x="-1.31" y="6.84">Cou</tspan><tspan class="cls-15" x="9.65" y="6.84">n</tspan><tspan x="13.26" y="6.84">ty</tspan><tspan x="-2.45" y="13.67">Cha</tspan><tspan class="cls-11" x="8.21" y="13.67">p</tspan><tspan class="cls-12" x="11.85" y="13.67">t</tspan><tspan x="14.14" y="13.67">er</tspan></text></g><g id="king-county-chapter"><text class="cls-3" transform="translate(99.01 88.73)">King<tspan x="-3.92" y="6.84">Cou</tspan><tspan class="cls-15" x="7.04" y="6.84">n</tspan><tspan x="10.64" y="6.84">ty</tspan><tspan x="-5.07" y="13.67">Cha</tspan><tspan class="cls-11" x="5.59" y="13.67">p</tspan><tspan class="cls-12" x="9.24" y="13.67">t</tspan><tspan x="11.52" y="13.67">er</tspan></text></g><g id="inland-nw-ycup"><path class="cls-18" d="M234.16,16.9a.07.07,0,0,1,0,.06s0,0-.07,0a.42.42,0,0,1-.13,0h-.43a.35.35,0,0,1-.13,0,.15.15,0,0,1-.08,0,.14.14,0,0,1,0-.06V12.82a.14.14,0,0,1,0-.06.15.15,0,0,1,.08,0l.13,0h.43l.13,0s.06,0,.07,0a.07.07,0,0,1,0,.06Z"/><path class="cls-18" d="M237.9,16.91a.14.14,0,0,1,0,.06l-.07,0-.13,0h-.4l-.13,0-.07,0a.14.14,0,0,1,0-.06v-1.7a1.46,1.46,0,0,0,0-.34.58.58,0,0,0-.09-.21.36.36,0,0,0-.16-.14.5.5,0,0,0-.54.07,1.56,1.56,0,0,0-.34.34v2a.14.14,0,0,1,0,.06l-.07,0-.13,0h-.41l-.13,0-.07,0a.14.14,0,0,1,0-.06v-3a.14.14,0,0,1,0-.06.09.09,0,0,1,.06,0l.11,0h.35l.11,0,.06,0a.13.13,0,0,1,0,.06v.34a2.19,2.19,0,0,1,.5-.4,1.26,1.26,0,0,1,1,0,1,1,0,0,1,.34.27,1.32,1.32,0,0,1,.18.4,2.29,2.29,0,0,1,.06.56Z"/><path class="cls-18" d="M239.56,16.91a.13.13,0,0,1,0,.06l-.07,0-.13,0h-.41l-.13,0-.07,0a.14.14,0,0,1,0-.06V12.52a.14.14,0,0,1,0-.06.18.18,0,0,1,.07-.05l.13,0h.41l.13,0a.18.18,0,0,1,.07.05.13.13,0,0,1,0,.06Z"/><path class="cls-18" d="M242.94,16.92a.09.09,0,0,1,0,.07l-.11,0h-.43a.19.19,0,0,1-.1,0,.08.08,0,0,1,0-.07v-.24a1.75,1.75,0,0,1-.42.31,1.29,1.29,0,0,1-.53.11,1.49,1.49,0,0,1-.43-.06,1.31,1.31,0,0,1-.35-.19.84.84,0,0,1-.22-.3,1.08,1.08,0,0,1-.08-.42.91.91,0,0,1,.1-.45.84.84,0,0,1,.3-.32,1.7,1.7,0,0,1,.51-.19,3.54,3.54,0,0,1,.69-.06h.29v-.18a.9.9,0,0,0,0-.24.4.4,0,0,0-.1-.18.4.4,0,0,0-.17-.1,1,1,0,0,0-.27,0,1.4,1.4,0,0,0-.37,0,1.72,1.72,0,0,0-.3.11l-.21.1a.34.34,0,0,1-.14,0,.09.09,0,0,1-.06,0,.1.1,0,0,1-.05-.06l0-.11s0-.09,0-.14a.63.63,0,0,1,0-.16.24.24,0,0,1,.06-.11.71.71,0,0,1,.17-.11,2.49,2.49,0,0,1,.27-.11l.34-.08a2.43,2.43,0,0,1,.38,0,2.06,2.06,0,0,1,.6.07.84.84,0,0,1,.41.21.76.76,0,0,1,.24.36,1.7,1.7,0,0,1,.07.53Zm-.83-1.28h-.32a1.65,1.65,0,0,0-.34,0,.67.67,0,0,0-.24.09.37.37,0,0,0-.13.15.45.45,0,0,0,.08.49.48.48,0,0,0,.33.1.62.62,0,0,0,.32-.09,1.16,1.16,0,0,0,.3-.26Z"/><path class="cls-18" d="M246.62,16.91a.14.14,0,0,1,0,.06.14.14,0,0,1-.07,0l-.12,0H246l-.13,0-.07,0a.14.14,0,0,1,0-.06v-1.7a1.46,1.46,0,0,0,0-.34.58.58,0,0,0-.09-.21.4.4,0,0,0-.15-.14.51.51,0,0,0-.55.07,1.81,1.81,0,0,0-.34.34v2a.14.14,0,0,1,0,.06l-.07,0-.13,0H244l-.12,0a.14.14,0,0,1-.07,0,.07.07,0,0,1,0-.06v-3a.13.13,0,0,1,0-.06s0,0,.06,0l.12,0h.34l.11,0a.09.09,0,0,1,.06,0,.14.14,0,0,1,0,.06v.34a2,2,0,0,1,.5-.4,1.09,1.09,0,0,1,.53-.13,1.13,1.13,0,0,1,.51.1,1,1,0,0,1,.34.27,1,1,0,0,1,.18.4,2.29,2.29,0,0,1,.06.56Z"/><path class="cls-18" d="M250.27,16.91a.14.14,0,0,1,0,.06.1.1,0,0,1-.05,0l-.11,0h-.34l-.11,0a.09.09,0,0,1-.06,0,.14.14,0,0,1,0-.06v-.33a1.87,1.87,0,0,1-.48.38,1.19,1.19,0,0,1-.56.14,1.27,1.27,0,0,1-.58-.13,1.19,1.19,0,0,1-.38-.36,1.63,1.63,0,0,1-.22-.52,3.21,3.21,0,0,1-.06-.63,2.69,2.69,0,0,1,.08-.72,1.68,1.68,0,0,1,.25-.54,1,1,0,0,1,.41-.34,1.25,1.25,0,0,1,.56-.12,1,1,0,0,1,.45.1,1.78,1.78,0,0,1,.41.3V12.53a.13.13,0,0,1,0-.06.18.18,0,0,1,.07-.05l.13,0h.41l.12,0a.1.1,0,0,1,.07.05.14.14,0,0,1,0,.06Zm-.83-2a1.92,1.92,0,0,0-.35-.35.59.59,0,0,0-.35-.12.54.54,0,0,0-.28.08.67.67,0,0,0-.19.22.94.94,0,0,0-.1.31,1.27,1.27,0,0,0,0,.34,2.22,2.22,0,0,0,0,.37,1,1,0,0,0,.1.31.56.56,0,0,0,.18.22.46.46,0,0,0,.29.09.51.51,0,0,0,.17,0,.4.4,0,0,0,.16-.08,1.19,1.19,0,0,0,.18-.15l.2-.22Z"/><path class="cls-18" d="M256.27,16.71a.59.59,0,0,1,0,.14.39.39,0,0,1-.08.1.21.21,0,0,1-.1.06l-.13,0h-.37a.56.56,0,0,1-.2,0,.35.35,0,0,1-.16-.08.85.85,0,0,1-.14-.17l-.15-.27-1.07-2a3.54,3.54,0,0,1-.19-.39c-.07-.14-.13-.27-.18-.4h0c0,.16,0,.32,0,.47V16.9a.07.07,0,0,1,0,.06.09.09,0,0,1-.06,0l-.12,0h-.39l-.12,0a.09.09,0,0,1-.06,0,.14.14,0,0,1,0-.06V13a.29.29,0,0,1,.09-.23.36.36,0,0,1,.23-.08h.47l.21,0,.16.07a.89.89,0,0,1,.13.14,2.18,2.18,0,0,1,.12.22l.84,1.58.15.28c0,.1.09.19.13.28l.14.27.12.27h0c0-.16,0-.32,0-.49s0-.33,0-.48v-2a.14.14,0,0,1,0-.06s0,0,.07,0l.12,0h.39l.12,0s.05,0,.06,0a.13.13,0,0,1,0,.06Z"/><path class="cls-18" d="M261.76,16.8a.5.5,0,0,1-.05.13.3.3,0,0,1-.11.07.48.48,0,0,1-.18,0h-.59a.48.48,0,0,1-.18,0,.22.22,0,0,1-.09-.07.5.5,0,0,1-.05-.13l-.69-2.74h0l-.65,2.74a.33.33,0,0,1-.05.12.21.21,0,0,1-.1.08.4.4,0,0,1-.17,0h-.61a.48.48,0,0,1-.18,0s-.08,0-.09-.07a.29.29,0,0,1,0-.13l-1-3.77a.81.81,0,0,1,0-.19.14.14,0,0,1,0-.11.34.34,0,0,1,.14,0h.51l.14,0a.1.1,0,0,1,.06,0l0,.1.76,3.31h0l.79-3.29,0-.1a.12.12,0,0,1,.08-.06.42.42,0,0,1,.14,0h.49a.28.28,0,0,1,.15,0,.16.16,0,0,1,.08.06.62.62,0,0,1,0,.1l.82,3.29h0l.76-3.3,0-.09a.09.09,0,0,1,.06-.06.42.42,0,0,1,.13,0h.48a.34.34,0,0,1,.12,0,.2.2,0,0,1,0,.11c0,.05,0,.12,0,.2Z"/><path class="cls-18" d="M242.59,22.22v1.52a.14.14,0,0,1,0,.06l-.07,0-.14,0h-.43l-.13,0a.14.14,0,0,1-.07,0,.07.07,0,0,1,0-.06V22.22l-1.18-2.36a1,1,0,0,1-.09-.19.11.11,0,0,1,0-.1.27.27,0,0,1,.15,0h.53l.14,0a.16.16,0,0,1,.08.05l0,.07.48,1.07c.05.1.09.21.14.32s.09.23.14.36h0l.12-.35.14-.33.47-1a.19.19,0,0,1,0-.09.16.16,0,0,1,.08-.05l.13,0h.53a.21.21,0,0,1,.14,0s0,.06,0,.1a.87.87,0,0,1-.08.19Z"/><path class="cls-18" d="M247.12,23.2c0,.06,0,.11,0,.15s0,.07,0,.1l0,.07,0,.07-.15.09-.25.12a1.62,1.62,0,0,1-.35.09,2.72,2.72,0,0,1-.42,0,2.2,2.2,0,0,1-.8-.14,1.6,1.6,0,0,1-.61-.41,1.81,1.81,0,0,1-.39-.68,3.36,3.36,0,0,1-.13-.95,2.91,2.91,0,0,1,.15-1,1.94,1.94,0,0,1,.41-.72,1.64,1.64,0,0,1,.63-.44,2.16,2.16,0,0,1,.81-.15,2,2,0,0,1,.35,0,1.41,1.41,0,0,1,.31.08,1.56,1.56,0,0,1,.26.11.73.73,0,0,1,.15.11l.07.07a.19.19,0,0,1,0,.08s0,.07,0,.11v.33l0,.11a.09.09,0,0,1,0,.06s0,0-.05,0a.24.24,0,0,1-.13-.06l-.2-.13a2,2,0,0,0-.29-.13,1.18,1.18,0,0,0-.4-.05,1,1,0,0,0-.46.1,1,1,0,0,0-.34.3,1.36,1.36,0,0,0-.22.47,2.48,2.48,0,0,0-.07.63,2.59,2.59,0,0,0,.08.66,1.23,1.23,0,0,0,.22.46.81.81,0,0,0,.35.26,1.14,1.14,0,0,0,.46.09,1.64,1.64,0,0,0,.41-.05l.29-.12.2-.12a.22.22,0,0,1,.12-.06l.06,0s0,0,0,0,0,.06,0,.11S247.12,23.12,247.12,23.2Z"/><path class="cls-18" d="M251.27,22.25a2,2,0,0,1-.12.71,1.28,1.28,0,0,1-.34.53,1.63,1.63,0,0,1-.56.33,2.27,2.27,0,0,1-.77.11,2.39,2.39,0,0,1-.73-.1,1.49,1.49,0,0,1-.55-.31,1.31,1.31,0,0,1-.34-.51,2,2,0,0,1-.12-.73V19.66a.14.14,0,0,1,0-.06l.08-.05.13,0h.42l.14,0s.06,0,.07.05a.14.14,0,0,1,0,.06v2.55a1.42,1.42,0,0,0,.06.44,1,1,0,0,0,.19.32.75.75,0,0,0,.28.18,1.17,1.17,0,0,0,.74,0,.67.67,0,0,0,.28-.19.87.87,0,0,0,.17-.3,1.25,1.25,0,0,0,.06-.4v-2.6a.14.14,0,0,1,0-.06l.07-.05.14,0h.42l.13,0s.06,0,.07.05a.14.14,0,0,1,0,.06Z"/><path class="cls-18" d="M255.17,20.85a1.59,1.59,0,0,1-.12.64,1.15,1.15,0,0,1-.33.48,1.58,1.58,0,0,1-.53.29,2.37,2.37,0,0,1-.74.1h-.36v1.38a.14.14,0,0,1,0,.06l-.08,0-.13,0h-.43l-.13,0-.07,0a.14.14,0,0,1,0-.06V19.85a.32.32,0,0,1,.08-.23.29.29,0,0,1,.22-.08h1.31a2.67,2.67,0,0,1,.33.05,1.22,1.22,0,0,1,.39.14,1.28,1.28,0,0,1,.34.26,1.23,1.23,0,0,1,.21.37A1.46,1.46,0,0,1,255.17,20.85Zm-.92.06a.81.81,0,0,0-.08-.37.54.54,0,0,0-.2-.22,1.17,1.17,0,0,0-.24-.09h-.64v1.46h.39a.88.88,0,0,0,.35-.06.58.58,0,0,0,.24-.15.66.66,0,0,0,.13-.25A1,1,0,0,0,254.25,20.91Z"/></g><g id="western-washington-sister-society"><text class="cls-19" transform="translate(120.64 42.47)"><tspan class="cls-20">W</tspan><tspan x="5.95" y="0">e</tspan><tspan class="cls-21" x="9.39" y="0">s</tspan><tspan class="cls-12" x="12.04" y="0">t</tspan><tspan x="14.33" y="0">ern </tspan><tspan class="cls-8" x="-5.02" y="6.84">W</tspan><tspan x="0.93" y="6.84">ashin</tspan><tspan class="cls-9" x="16.05" y="6.84">g</tspan><tspan class="cls-10" x="19.24" y="6.84">t</tspan><tspan x="21.54" y="6.84">on </tspan><tspan x="-6.92" y="13.67">Si</tspan><tspan class="cls-6" x="-2.01" y="13.67">s</tspan><tspan class="cls-7" x="0.64" y="13.67">t</tspan><tspan x="2.93" y="13.67">er Soci</tspan><tspan class="cls-22" x="21.79" y="13.67">e</tspan><tspan x="25.19" y="13.67">ty</tspan></text></g><g id="greater-seattle-area-ycup"><text class="cls-23" transform="translate(96.15 66.21)">G<tspan class="cls-6" x="4.36" y="0">r</tspan><tspan x="6.71" y="0">e</tspan><tspan class="cls-15" x="10.15" y="0">a</tspan><tspan class="cls-7" x="13.46" y="0">t</tspan><tspan x="15.75" y="0">er </tspan><tspan x="1.01" y="6.84">Se</tspan><tspan class="cls-15" x="7.69" y="6.84">a</tspan><tspan x="11" y="6.84">ttle </tspan><tspan x="-4.12" y="13.67">A</tspan><tspan class="cls-6" x="0.02" y="13.67">r</tspan><tspan x="2.38" y="13.67">ea </tspan><tspan class="cls-4" x="10.74" y="13.67">Y</tspan><tspan x="14.02" y="13.67">CUP</tspan></text></g><g id="eastern-washingon-sister-society"><path class="cls-24" d="M238.27,87.42a.76.76,0,0,1,0,.16.25.25,0,0,1,0,.1s0,0-.05.06,0,0-.05,0H236a.29.29,0,0,1-.19-.06.29.29,0,0,1-.07-.22V83.72a.25.25,0,0,1,.07-.21.25.25,0,0,1,.19-.07h2.16l.05,0a.15.15,0,0,1,0,.06.25.25,0,0,1,0,.1.86.86,0,0,1,0,.17.81.81,0,0,1,0,.16.25.25,0,0,1,0,.1.15.15,0,0,1,0,.06l-.05,0h-1.55v1.05h1.31l.05,0a.09.09,0,0,1,0,.06s0,.06,0,.1a.81.81,0,0,1,0,.16.71.71,0,0,1,0,.16s0,.08,0,.1a.09.09,0,0,1,0,.06h-1.36v1.22h1.56l.05,0s0,0,.05.06a.31.31,0,0,1,0,.11A.71.71,0,0,1,238.27,87.42Z"/><path class="cls-24" d="M241.44,87.66a.09.09,0,0,1,0,.07l-.11,0h-.43a.23.23,0,0,1-.1,0,.14.14,0,0,1,0-.07v-.24a1.75,1.75,0,0,1-.42.31,1.29,1.29,0,0,1-.53.11,1.49,1.49,0,0,1-.43-.06,1.31,1.31,0,0,1-.35-.19.84.84,0,0,1-.22-.3,1.08,1.08,0,0,1-.08-.42.93.93,0,0,1,.1-.45.79.79,0,0,1,.31-.32,1.54,1.54,0,0,1,.5-.19,3.58,3.58,0,0,1,.7-.06h.29v-.18a.88.88,0,0,0,0-.24.4.4,0,0,0-.1-.18.4.4,0,0,0-.17-.1,1,1,0,0,0-.27,0,1.4,1.4,0,0,0-.37,0l-.3.11-.21.1a.3.3,0,0,1-.14,0,.09.09,0,0,1-.06,0,.1.1,0,0,1-.05-.06l0-.11s0-.09,0-.14a.63.63,0,0,1,0-.16.24.24,0,0,1,.06-.11.71.71,0,0,1,.17-.11,2.49,2.49,0,0,1,.27-.11l.34-.08a2.47,2.47,0,0,1,.39,0,2,2,0,0,1,.59.07.84.84,0,0,1,.41.21.76.76,0,0,1,.24.36,1.7,1.7,0,0,1,.07.53Zm-.82-1.28h-.32a1.69,1.69,0,0,0-.35,0,.67.67,0,0,0-.24.09.37.37,0,0,0-.13.15.45.45,0,0,0,.08.49.48.48,0,0,0,.33.1.57.57,0,0,0,.32-.09,1.38,1.38,0,0,0,.31-.26Z"/><path class="cls-24" d="M244.37,86.81a1,1,0,0,1-.09.44.86.86,0,0,1-.27.33,1.29,1.29,0,0,1-.41.19,1.7,1.7,0,0,1-.51.07,1.58,1.58,0,0,1-.32,0,1.81,1.81,0,0,1-.27-.06,1.38,1.38,0,0,1-.2-.08l-.12-.07a.2.2,0,0,1-.06-.11,1.21,1.21,0,0,1,0-.23.66.66,0,0,1,0-.15.3.3,0,0,1,0-.1l0,0h.05a.21.21,0,0,1,.11,0l.18.09.25.09a1,1,0,0,0,.32,0,.64.64,0,0,0,.2,0,.44.44,0,0,0,.16-.06.31.31,0,0,0,.09-.11.29.29,0,0,0,0-.16.27.27,0,0,0-.06-.17.52.52,0,0,0-.17-.12l-.23-.1-.26-.11-.27-.13a1.3,1.3,0,0,1-.23-.18.82.82,0,0,1-.16-.26,1,1,0,0,1-.06-.36,1,1,0,0,1,.08-.39.89.89,0,0,1,.24-.3,1.15,1.15,0,0,1,.38-.2,1.61,1.61,0,0,1,.51-.07l.27,0,.24,0a.75.75,0,0,1,.18.07l.11.06s0,0,0,0a.14.14,0,0,1,0,.06.28.28,0,0,1,0,.09.53.53,0,0,1,0,.13.66.66,0,0,1,0,.15s0,.07,0,.09a.08.08,0,0,1,0,0h0l-.1,0-.15-.08-.23-.07a1.11,1.11,0,0,0-.28,0,.6.6,0,0,0-.2,0,.39.39,0,0,0-.13.06.21.21,0,0,0-.08.11.26.26,0,0,0,0,.29.59.59,0,0,0,.17.13l.24.1.26.1.27.13a.84.84,0,0,1,.23.18.85.85,0,0,1,.17.25A1,1,0,0,1,244.37,86.81Z"/><path class="cls-24" d="M246.69,87.35a1.21,1.21,0,0,1,0,.23.23.23,0,0,1,0,.11l-.08.06-.14,0-.17,0H246a1.14,1.14,0,0,1-.43-.07.67.67,0,0,1-.3-.19.88.88,0,0,1-.18-.33,1.7,1.7,0,0,1-.06-.48V85.24h-.35a.11.11,0,0,1-.1-.08.79.79,0,0,1,0-.26v-.17a.62.62,0,0,1,0-.1.09.09,0,0,1,0-.06h.41v-.67a.14.14,0,0,1,0-.06s0,0,.07,0a.35.35,0,0,1,.13,0h.4a.35.35,0,0,1,.13,0s.06,0,.07,0a.14.14,0,0,1,0,.06v.67h.71a.15.15,0,0,1,0,.06.25.25,0,0,1,0,.1.86.86,0,0,1,0,.17.79.79,0,0,1,0,.26.11.11,0,0,1-.1.08h-.65v1.4A.69.69,0,0,0,246,87a.29.29,0,0,0,.27.12h.12l.1,0,.07,0h.09a.06.06,0,0,1,0,0,.2.2,0,0,1,0,.09A.66.66,0,0,1,246.69,87.35Z"/><path class="cls-24" d="M250,86.07a.37.37,0,0,1-.07.23.25.25,0,0,1-.19.07H247.9a1.29,1.29,0,0,0,0,.35.61.61,0,0,0,.15.26.65.65,0,0,0,.25.17,1.32,1.32,0,0,0,.37,0,2.21,2.21,0,0,0,.39,0,1.77,1.77,0,0,0,.29-.07l.2-.07.13,0h.05l0,0a.2.2,0,0,1,0,.09s0,.08,0,.14a.41.41,0,0,1,0,.12.22.22,0,0,1,0,.09.11.11,0,0,1,0,.06l0,0a.33.33,0,0,1-.12.06,1.23,1.23,0,0,1-.25.08l-.34.07a2.77,2.77,0,0,1-.42,0,2.39,2.39,0,0,1-.69-.1,1.21,1.21,0,0,1-.5-.31,1.28,1.28,0,0,1-.3-.51,2.63,2.63,0,0,1-.1-.73,2.25,2.25,0,0,1,.11-.71,1.29,1.29,0,0,1,.3-.54,1.17,1.17,0,0,1,.48-.34,1.57,1.57,0,0,1,.63-.12,1.75,1.75,0,0,1,.64.11,1.07,1.07,0,0,1,.44.31,1.36,1.36,0,0,1,.25.46,2.14,2.14,0,0,1,.08.58Zm-.82-.24a.84.84,0,0,0-.14-.55.54.54,0,0,0-.47-.21.61.61,0,0,0-.28.06.52.52,0,0,0-.19.17.46.46,0,0,0-.12.24.93.93,0,0,0,0,.29Z"/><path class="cls-24" d="M252.57,85a1,1,0,0,1,0,.19.29.29,0,0,1,0,.12.16.16,0,0,1,0,.06s0,0-.06,0h-.06l-.07,0-.09,0h-.11a.32.32,0,0,0-.14,0,.37.37,0,0,0-.15.08c-.05,0-.1.1-.16.16s-.11.15-.17.25v1.86a.14.14,0,0,1,0,.06l-.07,0-.13,0h-.41l-.12,0a.14.14,0,0,1-.07,0,.07.07,0,0,1,0-.06v-3a.13.13,0,0,1,0-.06s0,0,.06,0l.12,0h.34l.11,0a.09.09,0,0,1,.06,0,.14.14,0,0,1,0,.06V85c.07-.11.15-.2.21-.28a2.61,2.61,0,0,1,.2-.17.82.82,0,0,1,.19-.09l.19,0h.09l.1,0,.1,0,0,0s0,0,0,0,0,0,0,.05a.49.49,0,0,0,0,.11Z"/><path class="cls-24" d="M255.93,87.65a.07.07,0,0,1,0,.06.14.14,0,0,1-.07,0l-.12,0h-.41l-.13,0-.07,0a.14.14,0,0,1,0-.06V86a1.46,1.46,0,0,0,0-.34.58.58,0,0,0-.09-.21.4.4,0,0,0-.15-.14.51.51,0,0,0-.55.07,1.81,1.81,0,0,0-.34.34v2a.14.14,0,0,1,0,.06l-.07,0-.13,0h-.41l-.12,0a.14.14,0,0,1-.07,0,.07.07,0,0,1,0-.06v-3a.13.13,0,0,1,0-.06l.06,0,.12,0h.35l.1,0a.09.09,0,0,1,.06,0,.14.14,0,0,1,0,.06V85a2,2,0,0,1,.5-.4,1.24,1.24,0,0,1,1,0,1,1,0,0,1,.34.27,1.14,1.14,0,0,1,.19.4,3,3,0,0,1,.05.56Z"/><path class="cls-24" d="M233.85,94.37a.32.32,0,0,1,0,.13.23.23,0,0,1-.11.08l-.18,0h-.59l-.18,0a.18.18,0,0,1-.09-.08.32.32,0,0,1-.05-.13l-.69-2.73h0l-.65,2.73a.32.32,0,0,1-.05.13.15.15,0,0,1-.1.07.61.61,0,0,1-.17,0h-.61l-.18,0s-.08,0-.09-.08a.22.22,0,0,1-.05-.13l-1-3.76a.89.89,0,0,1,0-.19.14.14,0,0,1,0-.11.23.23,0,0,1,.14,0h.51a.42.42,0,0,1,.14,0,.1.1,0,0,1,.06,0,.62.62,0,0,1,0,.1l.76,3.31h0l.79-3.29,0-.1a.12.12,0,0,1,.08-.06.26.26,0,0,1,.14,0h.49l.15,0,.08.06,0,.11.82,3.29h0l.76-3.3a.46.46,0,0,1,0-.09.09.09,0,0,1,.06-.06.25.25,0,0,1,.13,0h.48a.16.16,0,0,1,.11,0,.14.14,0,0,1,0,.11s0,.11,0,.2Z"/><path class="cls-24" d="M237.74,94.49a.1.1,0,0,1,0,.08l-.11,0h-.43a.19.19,0,0,1-.1,0s0,0,0-.08v-.23a1.48,1.48,0,0,1-.42.3,1.15,1.15,0,0,1-.53.12,1.49,1.49,0,0,1-.43-.07,1.06,1.06,0,0,1-.35-.18.84.84,0,0,1-.22-.3,1.08,1.08,0,0,1-.08-.42,1,1,0,0,1,.1-.46.89.89,0,0,1,.3-.31,1.46,1.46,0,0,1,.51-.19,3.54,3.54,0,0,1,.69-.06h.29v-.18a.9.9,0,0,0,0-.24.4.4,0,0,0-.1-.18.32.32,0,0,0-.17-.1,1,1,0,0,0-.27,0,1.52,1.52,0,0,0-.38,0l-.29.1-.21.11a.3.3,0,0,1-.14,0,.07.07,0,0,1-.06,0,.13.13,0,0,1-.05-.07.62.62,0,0,1,0-.1s0-.09,0-.14a.72.72,0,0,1,0-.17.21.21,0,0,1,.06-.1.5.5,0,0,1,.17-.11,1.16,1.16,0,0,1,.27-.11l.34-.08a2.43,2.43,0,0,1,.38,0,2.06,2.06,0,0,1,.6.07.84.84,0,0,1,.41.21.76.76,0,0,1,.24.36,1.7,1.7,0,0,1,.07.53Zm-.83-1.27h-.32a1.65,1.65,0,0,0-.34,0,.67.67,0,0,0-.24.09.43.43,0,0,0-.13.14.45.45,0,0,0,0,.2A.37.37,0,0,0,236,94a.44.44,0,0,0,.33.11.62.62,0,0,0,.32-.09,1.39,1.39,0,0,0,.3-.26Z"/><path class="cls-24" d="M240.67,93.64a1.06,1.06,0,0,1-.09.45.84.84,0,0,1-.27.32,1.12,1.12,0,0,1-.41.2,2.11,2.11,0,0,1-.52.07,1.55,1.55,0,0,1-.31,0l-.28-.06-.2-.08a.35.35,0,0,1-.11-.08.17.17,0,0,1-.06-.11,1.09,1.09,0,0,1,0-.22.62.62,0,0,1,0-.15.3.3,0,0,1,0-.1l0,0h0l.11,0,.18.09.25.09a1,1,0,0,0,.32,0,.65.65,0,0,0,.2,0,.52.52,0,0,0,.15-.07.21.21,0,0,0,.1-.11.33.33,0,0,0,0-.15.22.22,0,0,0-.07-.17.53.53,0,0,0-.16-.13l-.23-.1-.26-.1-.27-.13a1.3,1.3,0,0,1-.23-.18.76.76,0,0,1-.16-.26,1,1,0,0,1-.06-.36.85.85,0,0,1,.08-.39.92.92,0,0,1,.62-.5,1.61,1.61,0,0,1,.51-.07,1.23,1.23,0,0,1,.27,0l.24,0,.18.06.11.06,0,0a.14.14,0,0,1,0,.06s0,0,0,.09a.49.49,0,0,1,0,.13.53.53,0,0,1,0,.14.2.2,0,0,1,0,.09,0,0,0,0,1,0,.05h0l-.1,0a.79.79,0,0,0-.16-.08,1,1,0,0,0-.22-.07.79.79,0,0,0-.28,0l-.2,0a.61.61,0,0,0-.14.07.39.39,0,0,0-.08.1.51.51,0,0,0,0,.13.25.25,0,0,0,.06.17.43.43,0,0,0,.17.12l.23.11.27.1a1.66,1.66,0,0,1,.27.13.66.66,0,0,1,.23.18.74.74,0,0,1,.17.25A1,1,0,0,1,240.67,93.64Z"/><path class="cls-24" d="M244.15,94.48a.08.08,0,0,1,0,.06s0,0-.07,0a.35.35,0,0,1-.13,0h-.4a.35.35,0,0,1-.13,0s-.06,0-.07,0a.08.08,0,0,1,0-.06V92.79a1.62,1.62,0,0,0,0-.35.67.67,0,0,0-.09-.21.34.34,0,0,0-.16-.13.4.4,0,0,0-.22,0,.56.56,0,0,0-.32.11,1.63,1.63,0,0,0-.34.35v2a.08.08,0,0,1,0,.06l-.07,0a.5.5,0,0,1-.13,0h-.41a.5.5,0,0,1-.13,0l-.07,0a.08.08,0,0,1,0-.06V90.1a.14.14,0,0,1,0-.07l.07,0,.13,0h.41l.13,0,.07,0a.14.14,0,0,1,0,.07v1.64a1.59,1.59,0,0,1,.44-.32,1.07,1.07,0,0,1,.47-.1,1.13,1.13,0,0,1,.51.1.82.82,0,0,1,.34.27,1.28,1.28,0,0,1,.18.41,2.23,2.23,0,0,1,.06.56Z"/><path class="cls-24" d="M245.88,90.5a.47.47,0,0,1-.11.35.77.77,0,0,1-.76,0,.43.43,0,0,1-.1-.34.49.49,0,0,1,.1-.35.61.61,0,0,1,.39-.1.6.6,0,0,1,.38.1A.49.49,0,0,1,245.88,90.5Zm-.07,4s0,0,0,.06l-.07,0a.5.5,0,0,1-.13,0h-.41a.42.42,0,0,1-.13,0l-.07,0a.08.08,0,0,1,0-.06v-3a.08.08,0,0,1,0-.05.18.18,0,0,1,.07,0l.13,0h.41l.13,0a.18.18,0,0,1,.07,0,.07.07,0,0,1,0,.05Z"/><path class="cls-24" d="M249.5,94.48a.08.08,0,0,1,0,.06l-.07,0a.35.35,0,0,1-.13,0h-.41a.35.35,0,0,1-.12,0s-.06,0-.07,0a.08.08,0,0,1,0-.06V92.79a1.62,1.62,0,0,0,0-.35.67.67,0,0,0-.09-.21.47.47,0,0,0-.38-.18.62.62,0,0,0-.33.11,1.9,1.9,0,0,0-.34.35v2s0,0,0,.06a.09.09,0,0,1-.06,0,.5.5,0,0,1-.13,0h-.41a.42.42,0,0,1-.13,0l-.07,0a.08.08,0,0,1,0-.06v-3a.11.11,0,0,1,0-.06.09.09,0,0,1,.06,0l.11,0h.35l.11,0a.1.1,0,0,1,0,0,.11.11,0,0,1,0,.06v.34a1.79,1.79,0,0,1,.5-.4,1.12,1.12,0,0,1,.53-.13,1.15,1.15,0,0,1,.52.1.73.73,0,0,1,.33.27,1.06,1.06,0,0,1,.19.4,2.2,2.2,0,0,1,.06.55Z"/><path class="cls-24" d="M253,91.71a.65.65,0,0,1,0,.24s-.06.08-.09.08h-.35a.4.4,0,0,1,.1.18.76.76,0,0,1,0,.21,1.08,1.08,0,0,1-.08.46.86.86,0,0,1-.25.34.92.92,0,0,1-.39.21,1.6,1.6,0,0,1-.51.08,1.1,1.1,0,0,1-.27,0,.55.55,0,0,1-.2-.08.39.39,0,0,0-.08.1.32.32,0,0,0,0,.14.21.21,0,0,0,.09.16.38.38,0,0,0,.24.06l.72,0a1.93,1.93,0,0,1,.45.07.92.92,0,0,1,.34.18.73.73,0,0,1,.2.26.86.86,0,0,1,.08.36,1,1,0,0,1-.1.42,1,1,0,0,1-.29.34,1.48,1.48,0,0,1-.49.22,2.29,2.29,0,0,1-.68.09,3.06,3.06,0,0,1-.65-.06,1.39,1.39,0,0,1-.44-.17A.67.67,0,0,1,250,95a.66.66,0,0,1,0-.21,1.08,1.08,0,0,1,.08-.19,1.1,1.1,0,0,1,.14-.18,1.45,1.45,0,0,1,.18-.16.56.56,0,0,1-.22-.21.57.57,0,0,1-.08-.29.74.74,0,0,1,.09-.36,1.54,1.54,0,0,1,.23-.29.9.9,0,0,1-.18-.28,1,1,0,0,1-.07-.41,1.14,1.14,0,0,1,.09-.46,1.12,1.12,0,0,1,.25-.35,1.39,1.39,0,0,1,.4-.22,1.55,1.55,0,0,1,.5-.07l.26,0,.24,0h.95s.07,0,.09.08A.65.65,0,0,1,253,91.71Zm-.89,3.09a.27.27,0,0,0-.12-.24.62.62,0,0,0-.33-.08l-.59,0a.58.58,0,0,0-.14.12l-.09.11a.49.49,0,0,0,0,.11.34.34,0,0,0,0,.1.29.29,0,0,0,.17.26,1.19,1.19,0,0,0,.48.08,1,1,0,0,0,.32,0,.68.68,0,0,0,.21-.1.36.36,0,0,0,.11-.14A.45.45,0,0,0,252.12,94.8Zm-.19-2.38a.52.52,0,0,0-.14-.38.54.54,0,0,0-.37-.13.67.67,0,0,0-.22,0,.61.61,0,0,0-.16.12.42.42,0,0,0-.09.16.69.69,0,0,0,0,.2.49.49,0,0,0,.14.36.48.48,0,0,0,.37.13.54.54,0,0,0,.22,0,.33.33,0,0,0,.15-.11.51.51,0,0,0,.09-.16A.43.43,0,0,0,251.93,92.42Z"/><path class="cls-24" d="M255.28,94.19a1.3,1.3,0,0,1,0,.23.38.38,0,0,1,0,.11.19.19,0,0,1-.09,0l-.14,0-.17,0h-.18a1.46,1.46,0,0,1-.44-.06.77.77,0,0,1-.3-.19.85.85,0,0,1-.18-.34,2.12,2.12,0,0,1-.05-.47V92.07h-.36a.1.1,0,0,1-.1-.07.87.87,0,0,1,0-.27.76.76,0,0,1,0-.16.25.25,0,0,1,0-.1.15.15,0,0,1,0-.06l.06,0h.36v-.66a.13.13,0,0,1,0-.06l.07,0,.13,0h.41l.13,0s.05,0,.06,0a.07.07,0,0,1,0,.06v.66h.65l.06,0a.09.09,0,0,1,0,.06.62.62,0,0,1,0,.1s0,.1,0,.16a.81.81,0,0,1,0,.27.1.1,0,0,1-.1.07h-.65v1.4a.7.7,0,0,0,.08.37.29.29,0,0,0,.27.12H255l.09,0,.07,0h.09l0,0s0,.06,0,.1S255.28,94.13,255.28,94.19Z"/><path class="cls-24" d="M258.83,93a2.5,2.5,0,0,1-.1.69,1.44,1.44,0,0,1-.31.54,1.26,1.26,0,0,1-.51.35,1.93,1.93,0,0,1-.72.13,1.85,1.85,0,0,1-.69-.12,1.16,1.16,0,0,1-.48-.32,1.28,1.28,0,0,1-.29-.51,2.52,2.52,0,0,1-.1-.7,2.19,2.19,0,0,1,.11-.7,1.42,1.42,0,0,1,.3-.54,1.41,1.41,0,0,1,.51-.35,2,2,0,0,1,.72-.12,1.82,1.82,0,0,1,.69.11,1.18,1.18,0,0,1,.49.31,1.31,1.31,0,0,1,.28.52A2.21,2.21,0,0,1,258.83,93ZM258,93a2.63,2.63,0,0,0,0-.41,1.33,1.33,0,0,0-.12-.32.63.63,0,0,0-.22-.21.75.75,0,0,0-.35-.08.67.67,0,0,0-.33.07.63.63,0,0,0-.23.2.77.77,0,0,0-.13.32,1.34,1.34,0,0,0-.05.42,1.64,1.64,0,0,0,0,.4,1,1,0,0,0,.11.33.58.58,0,0,0,.23.21.71.71,0,0,0,.34.07.67.67,0,0,0,.33-.07.54.54,0,0,0,.23-.19.94.94,0,0,0,.14-.32A1.76,1.76,0,0,0,258,93Z"/><path class="cls-24" d="M262.34,94.48a.08.08,0,0,1,0,.06l-.07,0a.42.42,0,0,1-.13,0h-.41a.5.5,0,0,1-.13,0,.09.09,0,0,1-.06,0s0,0,0-.06V92.79a1.62,1.62,0,0,0,0-.35,1,1,0,0,0-.1-.21.37.37,0,0,0-.15-.13.4.4,0,0,0-.22,0,.62.62,0,0,0-.33.11,1.9,1.9,0,0,0-.34.35v2s0,0,0,.06,0,0-.07,0a.35.35,0,0,1-.12,0h-.41a.35.35,0,0,1-.13,0s-.06,0-.07,0a.08.08,0,0,1,0-.06v-3a.11.11,0,0,1,0-.06.09.09,0,0,1,.06,0l.11,0H260l.11,0a.1.1,0,0,1,.05,0,.11.11,0,0,1,0,.06v.34a1.79,1.79,0,0,1,.5-.4,1.12,1.12,0,0,1,.53-.13,1.15,1.15,0,0,1,.52.1.79.79,0,0,1,.33.27,1.06,1.06,0,0,1,.19.4,2.2,2.2,0,0,1,.06.55Z"/><path class="cls-24" d="M230,100.14a1.29,1.29,0,0,1-.47,1,1.43,1.43,0,0,1-.51.25,2.06,2.06,0,0,1-.62.09,1.73,1.73,0,0,1-.41,0,2.14,2.14,0,0,1-.34-.08l-.25-.11-.14-.1a.23.23,0,0,1-.06-.13,1.21,1.21,0,0,1,0-.23,1,1,0,0,1,0-.18.36.36,0,0,1,0-.11.09.09,0,0,1,0-.06.08.08,0,0,1,.06,0,.36.36,0,0,1,.13,0,1.83,1.83,0,0,0,.22.13l.32.12a1.73,1.73,0,0,0,.42,0,.85.85,0,0,0,.29,0,.64.64,0,0,0,.22-.1.46.46,0,0,0,.13-.18.56.56,0,0,0,.05-.23A.41.41,0,0,0,229,100a.78.78,0,0,0-.21-.19l-.29-.15-.34-.15-.34-.18a1.37,1.37,0,0,1-.29-.25,1.33,1.33,0,0,1-.21-.33,1.32,1.32,0,0,1-.08-.47,1.16,1.16,0,0,1,.12-.54,1,1,0,0,1,.31-.39,1.34,1.34,0,0,1,.46-.24,2,2,0,0,1,.56-.07l.31,0,.29.06.23.09.14.09.05,0s0,0,0,.07a.64.64,0,0,1,0,.09v.15a.76.76,0,0,1,0,.16.34.34,0,0,1,0,.11.16.16,0,0,1,0,.07l-.05,0a.28.28,0,0,1-.12,0,1.23,1.23,0,0,0-.2-.1,1.69,1.69,0,0,0-.27-.1,1.14,1.14,0,0,0-.33,0,.71.71,0,0,0-.26,0,.39.39,0,0,0-.17.09.33.33,0,0,0-.11.15.58.58,0,0,0,0,.19.41.41,0,0,0,.08.24.65.65,0,0,0,.21.19,1.4,1.4,0,0,0,.3.15l.34.16a2.21,2.21,0,0,1,.34.18,1.76,1.76,0,0,1,.3.24,1.08,1.08,0,0,1,.21.34A1.21,1.21,0,0,1,230,100.14Z"/><path class="cls-24" d="M231.49,97.33a.46.46,0,0,1-.11.35.54.54,0,0,1-.38.1.57.57,0,0,1-.38-.09.45.45,0,0,1-.1-.34.46.46,0,0,1,.1-.35.55.55,0,0,1,.39-.1.54.54,0,0,1,.38.1A.46.46,0,0,1,231.49,97.33Zm-.07,4a.07.07,0,0,1,0,.06s0,0-.07,0l-.12,0h-.41l-.13,0s-.06,0-.07,0a.14.14,0,0,1,0-.06v-3a.14.14,0,0,1,0-.06s0,0,.07,0l.13,0h.41l.12,0s.06,0,.07,0a.07.07,0,0,1,0,.06Z"/><path class="cls-24" d="M234.36,100.48a1.06,1.06,0,0,1-.1.45.83.83,0,0,1-.27.32,1.21,1.21,0,0,1-.41.2,2.1,2.1,0,0,1-.51.06l-.32,0-.27-.07a.76.76,0,0,1-.2-.08.31.31,0,0,1-.12-.07s0-.06-.06-.11a1.18,1.18,0,0,1,0-.22c0-.07,0-.12,0-.16a.2.2,0,0,1,0-.09.11.11,0,0,1,0,0h.05a.21.21,0,0,1,.11,0l.18.09a1.18,1.18,0,0,0,.25.1,1,1,0,0,0,.32,0l.2,0,.16-.07a.52.52,0,0,0,.1-.11.4.4,0,0,0,0-.15.28.28,0,0,0-.06-.18.74.74,0,0,0-.17-.12,1,1,0,0,0-.23-.1l-.26-.1-.27-.13a1,1,0,0,1-.23-.19.89.89,0,0,1-.16-.25,1,1,0,0,1-.06-.36,1,1,0,0,1,.08-.4,1,1,0,0,1,.24-.3,1.43,1.43,0,0,1,.39-.2,1.89,1.89,0,0,1,.5-.07l.27,0,.24,0a.75.75,0,0,1,.18.07l.11.06a.1.1,0,0,1,0,.05.08.08,0,0,1,0,.06.19.19,0,0,1,0,.08.53.53,0,0,1,0,.13.66.66,0,0,1,0,.15.22.22,0,0,1,0,.09l0,0h0a.16.16,0,0,1-.09,0l-.16-.07-.22-.08a1.29,1.29,0,0,0-.29,0,.65.65,0,0,0-.2,0,.4.4,0,0,0-.13.07.19.19,0,0,0-.08.1.27.27,0,0,0,0,.12.28.28,0,0,0,.06.18.74.74,0,0,0,.17.12,1.33,1.33,0,0,0,.24.1l.26.1.27.13a1.08,1.08,0,0,1,.24.18,1,1,0,0,1,.16.26A.75.75,0,0,1,234.36,100.48Z"/><path class="cls-24" d="M236.67,101a.68.68,0,0,1,0,.22.23.23,0,0,1,0,.11l-.09.06-.14,0-.17,0H236a1.4,1.4,0,0,1-.43-.06.79.79,0,0,1-.3-.2.88.88,0,0,1-.18-.33,1.63,1.63,0,0,1-.06-.47V98.91h-.35a.11.11,0,0,1-.1-.08.79.79,0,0,1,0-.26v-.16a.81.81,0,0,1,0-.11.1.1,0,0,1,0,0,.07.07,0,0,1,.06,0h.35v-.67a.08.08,0,0,1,0,0,.13.13,0,0,1,.07-.05l.13,0h.41l.12,0a.1.1,0,0,1,.07.05.08.08,0,0,1,0,0v.67h.65a.07.07,0,0,1,.06,0l0,0a.31.31,0,0,1,0,.11.76.76,0,0,1,0,.16.79.79,0,0,1,0,.26.11.11,0,0,1-.1.08h-.65v1.4a.69.69,0,0,0,.08.36.28.28,0,0,0,.27.13l.12,0,.1,0,.07,0h.09a.11.11,0,0,1,0,0s0,0,0,.09A.71.71,0,0,1,236.67,101Z"/><path class="cls-24" d="M240,99.74a.3.3,0,0,1-.07.23.26.26,0,0,1-.19.08h-1.81a1.22,1.22,0,0,0,0,.34.61.61,0,0,0,.15.26.56.56,0,0,0,.25.17,1,1,0,0,0,.37.06,2.21,2.21,0,0,0,.39,0l.29-.08a.77.77,0,0,0,.2-.07l.13,0h.05a.09.09,0,0,1,0,0,.15.15,0,0,1,0,.08.57.57,0,0,1,0,.14.53.53,0,0,1,0,.13.19.19,0,0,1,0,.08.08.08,0,0,1,0,.06l0,0-.12.07-.25.08-.34.06a2.73,2.73,0,0,1-.41,0,2.11,2.11,0,0,1-.7-.1,1.31,1.31,0,0,1-.5-.3,1.4,1.4,0,0,1-.3-.52,2.57,2.57,0,0,1-.1-.73,2.25,2.25,0,0,1,.11-.71,1.57,1.57,0,0,1,.3-.54,1.27,1.27,0,0,1,.48-.34,1.57,1.57,0,0,1,.63-.12,1.71,1.71,0,0,1,.64.11,1.29,1.29,0,0,1,.44.31,1.36,1.36,0,0,1,.25.46,2.14,2.14,0,0,1,.08.58Zm-.82-.24A.84.84,0,0,0,239,99a.54.54,0,0,0-.47-.2.64.64,0,0,0-.28.06.49.49,0,0,0-.19.16.55.55,0,0,0-.12.24.93.93,0,0,0-.05.29Z"/><path class="cls-24" d="M242.55,98.62v.2l0,.12a.09.09,0,0,1,0,.06h-.12l-.07,0-.09,0h-.11a.32.32,0,0,0-.14,0,.6.6,0,0,0-.15.09.78.78,0,0,0-.15.16,1.66,1.66,0,0,0-.18.24v1.86a.14.14,0,0,1,0,.06s0,0-.07,0l-.13,0h-.4l-.13,0s-.06,0-.07,0a.14.14,0,0,1,0-.06v-3a.07.07,0,0,1,0-.06l.06,0,.11,0h.35l.1,0,.06,0a.14.14,0,0,1,0,.06v.37a1.6,1.6,0,0,1,.22-.27,1.37,1.37,0,0,1,.19-.17.46.46,0,0,1,.19-.09.63.63,0,0,1,.19,0h.19l.1,0,.06,0,0,0s0,0,0,0,0,.06,0,.11Z"/><path class="cls-24" d="M247.23,100.14a1.29,1.29,0,0,1-.47,1,1.52,1.52,0,0,1-.51.25,2.11,2.11,0,0,1-.62.09,1.87,1.87,0,0,1-.42,0,2.44,2.44,0,0,1-.34-.08l-.24-.11-.15-.1a.53.53,0,0,1-.06-.13,1.21,1.21,0,0,1,0-.23c0-.07,0-.13,0-.18s0-.08,0-.11a.15.15,0,0,1,0-.06l.06,0a.31.31,0,0,1,.13,0l.22.13.32.12a1.81,1.81,0,0,0,.43,0,.88.88,0,0,0,.29,0,.68.68,0,0,0,.21-.1.49.49,0,0,0,.14-.18.56.56,0,0,0,0-.23.36.36,0,0,0-.08-.25.91.91,0,0,0-.2-.19l-.3-.15-.33-.15-.34-.18a1.16,1.16,0,0,1-.29-.25.93.93,0,0,1-.21-.33,1.32,1.32,0,0,1-.08-.47,1.3,1.3,0,0,1,.11-.54,1.1,1.1,0,0,1,.31-.39,1.44,1.44,0,0,1,.46-.24,2.12,2.12,0,0,1,.57-.07l.3,0,.29.06.24.09.13.09.05,0a.64.64,0,0,1,0,.07.22.22,0,0,1,0,.09v.31a.31.31,0,0,1,0,.11.15.15,0,0,1,0,.07l-.06,0-.11,0-.2-.1a1.69,1.69,0,0,0-.27-.1,1.21,1.21,0,0,0-.34,0,.62.62,0,0,0-.25,0,.51.51,0,0,0-.18.09.42.42,0,0,0-.11.15.58.58,0,0,0,0,.19.41.41,0,0,0,.08.24.65.65,0,0,0,.21.19,1.4,1.4,0,0,0,.3.15l.34.16a2.79,2.79,0,0,1,.34.18,1.37,1.37,0,0,1,.29.24,1.33,1.33,0,0,1,.22.34A1.21,1.21,0,0,1,247.23,100.14Z"/><path class="cls-24" d="M250.86,99.8a2.57,2.57,0,0,1-.1.7,1.44,1.44,0,0,1-.31.54,1.36,1.36,0,0,1-.51.35,1.94,1.94,0,0,1-.72.12,2.08,2.08,0,0,1-.69-.11,1.23,1.23,0,0,1-.48-.32,1.26,1.26,0,0,1-.29-.52,2.48,2.48,0,0,1-.09-.7,2.17,2.17,0,0,1,.1-.69,1.49,1.49,0,0,1,.3-.54,1.3,1.3,0,0,1,.51-.35,1.78,1.78,0,0,1,.72-.13,2,2,0,0,1,.69.11,1.2,1.2,0,0,1,.49.32,1.24,1.24,0,0,1,.28.52A2.15,2.15,0,0,1,250.86,99.8Zm-.87,0a2.54,2.54,0,0,0,0-.41,1.33,1.33,0,0,0-.12-.32.66.66,0,0,0-.22-.22.73.73,0,0,0-.35-.07.7.7,0,0,0-.33.07.55.55,0,0,0-.23.2.88.88,0,0,0-.13.31,1.86,1.86,0,0,0-.05.42,1.73,1.73,0,0,0,0,.41.82.82,0,0,0,.12.32.5.5,0,0,0,.22.21.81.81,0,0,0,.68,0,.55.55,0,0,0,.23-.2.88.88,0,0,0,.13-.31A1.87,1.87,0,0,0,250,99.84Z"/><path class="cls-24" d="M253.78,100.85c0,.05,0,.1,0,.14s0,.07,0,.1a.64.64,0,0,1,0,.07l-.05.06-.14.09-.22.1-.27.07a1.53,1.53,0,0,1-.3,0,1.66,1.66,0,0,1-.61-.11,1.17,1.17,0,0,1-.44-.31,1.56,1.56,0,0,1-.28-.51,2.4,2.4,0,0,1-.09-.69,2.46,2.46,0,0,1,.11-.77,1.44,1.44,0,0,1,.32-.54,1.16,1.16,0,0,1,.47-.32,1.64,1.64,0,0,1,.6-.1,1.1,1.1,0,0,1,.26,0,1.4,1.4,0,0,1,.24.06l.2.09.13.09.05.06a.14.14,0,0,1,0,.07s0,.06,0,.09v.15a.82.82,0,0,1,0,.27s0,.08-.09.08a.21.21,0,0,1-.12,0,1,1,0,0,0-.15-.1,1,1,0,0,0-.2-.11.88.88,0,0,0-.29,0,.55.55,0,0,0-.5.25,1.26,1.26,0,0,0-.18.74,1.73,1.73,0,0,0,.05.42.88.88,0,0,0,.13.31.46.46,0,0,0,.21.18.58.58,0,0,0,.3.07.73.73,0,0,0,.3-.06,1.51,1.51,0,0,0,.22-.11l.15-.12a.21.21,0,0,1,.11,0l.05,0a.16.16,0,0,1,0,.06s0,.07,0,.12S253.78,100.77,253.78,100.85Z"/><path class="cls-24" d="M255.29,97.33a.46.46,0,0,1-.11.35.53.53,0,0,1-.38.1.57.57,0,0,1-.38-.09.45.45,0,0,1-.1-.34.46.46,0,0,1,.1-.35.55.55,0,0,1,.39-.1.54.54,0,0,1,.38.1A.46.46,0,0,1,255.29,97.33Zm-.07,4a.07.07,0,0,1,0,.06.09.09,0,0,1-.06,0l-.13,0h-.41l-.13,0-.07,0a.14.14,0,0,1,0-.06v-3a.14.14,0,0,1,0-.06l.07,0,.13,0H255l.13,0a.09.09,0,0,1,.06,0,.07.07,0,0,1,0,.06Z"/><path class="cls-24" d="M258.81,99.74a.3.3,0,0,1-.07.23.24.24,0,0,1-.19.08h-1.81a1.21,1.21,0,0,0,.05.34.72.72,0,0,0,.14.26.62.62,0,0,0,.25.17,1.08,1.08,0,0,0,.38.06,2.17,2.17,0,0,0,.38,0l.29-.08a.77.77,0,0,0,.2-.07l.13,0h.06l0,0a.45.45,0,0,1,0,.08v.27s0,.06,0,.08,0,0,0,.06a.1.1,0,0,1,0,0s-.05,0-.12.07l-.24.08-.35.06a2.63,2.63,0,0,1-.41,0,2.15,2.15,0,0,1-.7-.1,1.35,1.35,0,0,1-.49-.3,1.17,1.17,0,0,1-.3-.52,2.64,2.64,0,0,1,0-1.44,1.57,1.57,0,0,1,.3-.54,1.27,1.27,0,0,1,.48-.34,1.62,1.62,0,0,1,.64-.12,1.75,1.75,0,0,1,.64.11,1.25,1.25,0,0,1,.43.31,1.21,1.21,0,0,1,.25.46,1.81,1.81,0,0,1,.08.58ZM258,99.5a.9.9,0,0,0-.14-.55.55.55,0,0,0-.47-.2.61.61,0,0,0-.28.06.53.53,0,0,0-.2.16.9.9,0,0,0-.12.24,1.35,1.35,0,0,0-.05.29Z"/><path class="cls-24" d="M261.22,101a1.18,1.18,0,0,1,0,.22.23.23,0,0,1-.05.11l-.09.06-.13,0-.17,0h-.19a1.35,1.35,0,0,1-.43-.06.76.76,0,0,1-.31-.2.74.74,0,0,1-.17-.33,1.63,1.63,0,0,1-.06-.47V98.91h-.36s-.07,0-.09-.08a.56.56,0,0,1,0-.26.76.76,0,0,1,0-.16.29.29,0,0,1,0-.11.1.1,0,0,1,0,0s0,0,.06,0h.35v-.67a.08.08,0,0,1,0,0,.1.1,0,0,1,.06-.05l.13,0h.41l.13,0a.18.18,0,0,1,.07.05.08.08,0,0,1,0,0v.67h.65s0,0,.05,0a.1.1,0,0,1,0,0,.29.29,0,0,1,0,.11.76.76,0,0,1,0,.16.56.56,0,0,1,0,.26s-.05.08-.09.08h-.65v1.4a.7.7,0,0,0,.07.36.31.31,0,0,0,.28.13l.12,0,.09,0,.07,0h.09s0,0,0,0a.64.64,0,0,1,0,.09A.71.71,0,0,1,261.22,101Z"/><path class="cls-24" d="M263.55,101.43l-.36,1.06a.24.24,0,0,1-.16.12,1.79,1.79,0,0,1-.39,0l-.22,0a.35.35,0,0,1-.12,0,.1.1,0,0,1,0-.07.2.2,0,0,1,0-.1l.4-1a.16.16,0,0,1-.08-.06.41.41,0,0,1-.05-.09l-1-2.73a.54.54,0,0,1,0-.18.12.12,0,0,1,0-.1.32.32,0,0,1,.13,0h.48l.13,0a.11.11,0,0,1,.07.06.73.73,0,0,1,.05.12l.7,2h0l.64-2a.35.35,0,0,1,0-.12l.11,0h.49a.27.27,0,0,1,.14,0,.14.14,0,0,1,.05.1.49.49,0,0,1,0,.15Z"/></g><g id="pierce"><text id="Pierce_County_Chapter" data-name="Pierce  County Chapter" class="cls-3" transform="translate(84.76 116.7)">Pie<tspan class="cls-25" x="8.76" y="0">r</tspan><tspan x="11.09" y="0">ce </tspan><tspan x="-1.39" y="6.84">Cou</tspan><tspan class="cls-15" x="9.57" y="6.84">n</tspan><tspan x="13.18" y="6.84">ty</tspan><tspan x="-2.53" y="13.67">Cha</tspan><tspan class="cls-11" x="8.13" y="13.67">p</tspan><tspan class="cls-12" x="11.77" y="13.67">t</tspan><tspan x="14.06" y="13.67">er</tspan></text></g><g id="ycup-pdx-2" data-name="ycup-pdx"><text class="cls-23" transform="translate(115.03 343.75)"><tspan class="cls-4">Y</tspan><tspan x="3.29" y="0">CUP </tspan><tspan x="1.73" y="6.84">P</tspan><tspan class="cls-5" x="5.37" y="6.84">D</tspan><tspan x="9.51" y="6.84">X </tspan></text></g></g><g id="oregon-locations"><g id="oregon"><path class="cls-26" d="M28.28,152c.35.61.7,1.22,1,1.83h-.26c-1-.71-.92-.48-.78-1.83Z"/><path class="cls-26" d="M29.84,153.59h.78c-.69.36-.16.48-.78,0Z"/><path class="cls-26" d="M40,154.11h1.3c-.69.63-.61.62-1.3,0Z"/><path class="cls-26" d="M42.08,154.11h.78l-.26.78-.26.26h-.26l-.52-.78.52.26v-.52Z"/><path class="cls-26" d="M293.55,379.08c-92.57,0-183.9.14-272.56,0-1.07-1.76-3.93-2.55-4.94-4.17l-.78-6.52c-3.27-4.4-3-13.94-.78-16.42q-.4-3.39-.79-6.78l-1.82-.52c0-1.82-.37-1.92-.26-2.87l-1.82-.26a7.61,7.61,0,0,0-2.08-5.21c3.71-2,4.8-13.29,6.5-18l.27-7.56c4-1.82,6-9.28,6.76-17.73,2.09-2.09,1.33-12.63,2.61-18.77,2-9.55,1-21.18,3.12-31.54-.17-3.3-.35-6.6-.52-9.91L28,228.14c-.75-9.5,4.45-12.06,2.34-23.46-1.22-.43-.9-.29-1-.78l1.3-.52c-.62-2.54-.41-11,.53-15.38.17-1.57.34-3.13.52-4.7L29.84,181c2.18-.36-.15-8.92,0-9.65.36-.75,1.66-1.55,1.83-2.34,2.18-.95-2.08-11.4-2.61-12.26l.52.26c3,0,2.3,2.41,5.73,2.61v-1a2.46,2.46,0,0,1-1-.26V158c2.85-.08,2.48-.32,4.17-1.31l.78,2.09h3.12c-.17-.52-.35-1-.52-1.57.69,0,1.31-.18,1-.78.58.67.31.15.26,1.05,1-.71,3.27-2.54,3.12-3.13,1.27.13,2.63-.22,3.13.26,1.25.86,2.28,3.75,1.56,4.69,3.13,4.28,7.86-1.46,11.19-1.56l1.57,1.56,1.56.78S71,163.33,72,165.32s1.27,5.38,2.34,5.47c.09.78.17,1.56.26,2.35,0,.41,1.94,5.07.52,6.51.55.73,2.38,4.68.78,7.56a12.16,12.16,0,0,1,4.43,2.61c.37.3,10.66,2.19,13,3.13.92.36,8.66-2.44,8.85-2.61.43-.36,1.73-.44,1.05-.78,2.27-1,6.17-1.79,7.28-4.95,1.44-.21,4.86-.43,5.73.52,4.83-3.53,15.65.38,19.27,1.82.17,1.05.34,2.09.52,3.13h1.56c.95-1,1.91-2.08,2.86-3.13,2.49,1,4.05.72,6.77,1.05.48-1.1,10.12-5.74,10.15-5.74,2.43-.23,3.13,2.09,5.73,2.61l9.63-1.31c.61-.86,1.22-1.73,1.82-2.6a81.18,81.18,0,0,1,8.33-3.39c3.26-1.21,6.47.13,8.59-1.3l5.21-4.18c3.66,3.21,14.52-2.63,17.18,0,1.75-1.36,3.83-2.35,5.73-3.91h78.1c.12,2.18,4.48,9.32,5.46,10.17.64-.41,1.82-.56,2.09-.26,1,.23,1,1.09,1.82,2.35,5.14-1.62,6.86,8.14,7.55,9.9-3.6,1.62-1.12,4.92-3.91,7.82-1.06.3,0,1.2-.78,2.09a20.29,20.29,0,0,0-4.16,8.6l-.78,5.74c-2.22,3.49-3.76,5.16-5.21,9.12l1.3-.52c-2.49,7.67-2.77,9.85-9.11,13.56.14.5-2.86,10.31-3.12,10.68A4.35,4.35,0,0,0,286,250c-.59,1.61.55,3.35-.78,5.47,1.42,1.78,1.92,1,2.08,3.13-.78,0-.81.83-1.3,2.09,1.32.28,1.31,1.11,3.39,1.3.3-1,0-.8,1-1.3-.09.17-.18.35-.26.52a2.38,2.38,0,0,1,1.82,2.08l2.34-1,1.3.52c-.08.87-.17,1.74-.26,2.61,1.66,0,2.2,1.39,3.39,1-.24,1.71-1.55,3.69-2.09,3.91-.66.58-.15.32-1,.26v2.87c.82.05.84.06,1.57.78-3.46,6.05-3.65,19.7-3.65,36.76v68Z"/><path class="cls-26" d="M42.86,154.37c.09.17.17.34.26.52-.09-.18-.17-.35-.26-.52Z"/><path class="cls-26" d="M44.68,154.37h.78l-.52.52c-.08-.18-.17-.35-.26-.52Z"/><path class="cls-26" d="M28.8,155.15c.81.42.33.55.78,1.3l-.78-.52-.52-.52.52.26v-.52Z"/><path class="cls-26" d="M39.48,157.5h.78v1l-.78-1Z"/><path class="cls-26" d="M30.62,191.12l.27.53-.27-.53Z"/></g><g id="central-oregon-chapter"><text class="cls-3" transform="translate(182.89 321.93)">Ce<tspan class="cls-15" x="7.06" y="0">n</tspan><tspan x="10.67" y="0">t</tspan><tspan class="cls-27" x="13.04" y="0">r</tspan><tspan x="15.32" y="0">al </tspan><tspan x="-0.28" y="6.84">O</tspan><tspan class="cls-6" x="4.34" y="6.84">r</tspan><tspan x="6.69" y="6.84">e</tspan><tspan class="cls-28" x="10.13" y="6.84">g</tspan><tspan x="13.31" y="6.84">on</tspan><tspan x="-1.05" y="13.67">Cha</tspan><tspan class="cls-11" x="9.62" y="13.67">p</tspan><tspan class="cls-12" x="13.26" y="13.67">t</tspan><tspan x="15.54" y="13.67">er</tspan></text></g><g id="southern-oregon-chapter"><text class="cls-3" transform="translate(50.7 346.05)">Southern <tspan x="2.61" y="6.84">O</tspan><tspan class="cls-6" x="7.23" y="6.84">r</tspan><tspan x="9.58" y="6.84">e</tspan><tspan class="cls-28" x="13.03" y="6.84">g</tspan><tspan x="16.2" y="6.84">on</tspan><tspan x="1.85" y="13.67">Cha</tspan><tspan class="cls-11" x="12.51" y="13.67">p</tspan><tspan class="cls-12" x="16.15" y="13.67">t</tspan><tspan x="18.44" y="13.67">er</tspan></text></g><text id="willamette-chapter" class="cls-3" transform="translate(53.14 279.3)">Willam<tspan class="cls-22" x="20.17" y="0">e</tspan><tspan class="cls-7" x="23.56" y="0">tt</tspan><tspan x="27.97" y="0">e</tspan><tspan x="4.47" y="8.2">Cha</tspan><tspan class="cls-11" x="15.13" y="8.2">p</tspan><tspan class="cls-12" x="18.78" y="8.2">t</tspan><tspan x="21.06" y="8.2">er</tspan></text><g id="capitol-chapter"><text class="cls-3" transform="translate(46.16 245.01)">Capi<tspan class="cls-28" x="12.34" y="0">t</tspan><tspan x="14.64" y="0">ol</tspan><tspan x="-1.23" y="8.2">Cha</tspan><tspan class="cls-11" x="9.43" y="8.2">p</tspan><tspan class="cls-12" x="13.07" y="8.2">t</tspan><tspan x="15.36" y="8.2">er</tspan></text></g><g id="cascadia-chapter"><text class="cls-3" transform="translate(85.31 212.86)">Cas<tspan class="cls-29" x="9.72" y="0">c</tspan><tspan x="12.54" y="0">adia </tspan><tspan x="1.09" y="8.2">Cha</tspan><tspan class="cls-11" x="11.75" y="8.2">p</tspan><tspan class="cls-12" x="15.39" y="8.2">t</tspan><tspan x="17.68" y="8.2">er</tspan></text></g><g id="portland-vancouver-sister-society"><text class="cls-19" transform="translate(48.58 189.27)"><tspan class="cls-13">P</tspan><tspan x="3.53" y="0">ortland/</tspan><tspan class="cls-30" x="-9.93" y="6.84">V</tspan><tspan x="-6.26" y="6.84">an</tspan><tspan class="cls-31" x="0.78" y="6.84">c</tspan><tspan x="3.61" y="6.84">ou</tspan><tspan class="cls-15" x="10.95" y="6.84">v</tspan><tspan x="14.13" y="6.84">er Si</tspan><tspan class="cls-6" x="26.45" y="6.84">s</tspan><tspan class="cls-7" x="29.1" y="6.84">t</tspan><tspan x="31.39" y="6.84">er </tspan><tspan x="3.44" y="13.67">Soci</tspan><tspan class="cls-22" x="14.89" y="13.67">e</tspan><tspan x="18.28" y="13.67">ty</tspan></text></g><g id="northwest-development-educators-network"><text class="cls-23" transform="translate(253.43 199.33)">Nort<tspan class="cls-17" x="12.98" y="0">hw</tspan><tspan x="21.64" y="0">e</tspan><tspan class="cls-6" x="25.08" y="0">s</tspan><tspan x="27.73" y="0">t </tspan><tspan x="-4.12" y="6.84">D</tspan><tspan class="cls-31" x="0.19" y="6.84">e</tspan><tspan class="cls-15" x="3.6" y="6.84">v</tspan><tspan x="6.77" y="6.84">elopme</tspan><tspan class="cls-15" x="28.24" y="6.84">n</tspan><tspan x="31.84" y="6.84">t </tspan><tspan class="cls-32" x="-11.95" y="13.67">E</tspan><tspan x="-8.71" y="13.67">du</tspan><tspan class="cls-29" x="-1.38" y="13.67">c</tspan><tspan class="cls-33" x="1.44" y="13.67">at</tspan><tspan x="7.06" y="13.67">o</tspan><tspan class="cls-7" x="10.73" y="13.67">r</tspan><tspan x="13.08" y="13.67">s N</tspan><tspan class="cls-22" x="21.86" y="13.67">e</tspan><tspan x="25.25" y="13.67">t</tspan><tspan class="cls-34" x="27.62" y="13.67">w</tspan><tspan x="32.66" y="13.67">ork </tspan></text></g><g id="willamette-valley-sister-society"><text class="cls-19" transform="translate(92.21 298.18)">Willam<tspan class="cls-22" x="20.17" y="0">e</tspan><tspan class="cls-7" x="23.56" y="0">tt</tspan><tspan x="27.97" y="0">e </tspan><tspan class="cls-30" x="-1.44" y="6.84">V</tspan><tspan x="2.23" y="6.84">all</tspan><tspan class="cls-15" x="8.96" y="6.84">e</tspan><tspan x="12.34" y="6.84">y Si</tspan><tspan class="cls-6" x="22.04" y="6.84">s</tspan><tspan class="cls-7" x="24.69" y="6.84">t</tspan><tspan x="26.97" y="6.84">er </tspan><tspan x="5.48" y="13.67">Soci</tspan><tspan class="cls-22" x="16.93" y="13.67">e</tspan><tspan x="20.32" y="13.67">ty</tspan></text></g></g><g id="idaho-locations"><path class="cls-35" d="M290.39,0h37.5V41.58c0,4.31,1.33,13.18-.57,16.24.89,3.32,7.1,9.39,7.1,9.39.88.49,1.21,3,.86,4.28,1.85-.48,4.29,2.59,4.83,3.13-.29,1-.57,2.09-.86,3.13,2,.56,1.36,1.52,1.71,3.13a4,4,0,0,0-2.56,2.85h2c-.35,2.45.67,1.54,1.7,3.42l-3.4,2.28c-.1.28-.19.57-.29.85,7.08-.43,7.21,8.94,16.76,8.83.06,2.6.54,2.07.86,4.56,4.82-.44,7.24,9.87,8.52,10.82,2,1.46,4.57,2.33,5.11,4.27.75,4.87,1,6.36,6.54,8.26-.29,1-.57,2.09-.85,3.14,2.25-.41,2.18-.8,3.69-2,1.79.29,1.74.68,2.56,1.43A31.83,31.83,0,0,0,381,133c1.19.44.18.82,1.13.57,2.27,0,3.49,0,4.83.57,1.3-.94,1.87-2.08,3.7-1.71.72-.62.12-.3,1.42-.28A5.29,5.29,0,0,1,393,135c-1.25.59-.47,3.29-1.42,6.26h-2c1.3,4.07,0,8.33-1.7,13.67-.48,1.54.57,3.18,0,4.85-1.1.19-1.7-.34-2.56.57.09.66.19,1.32.28,2,.95-.14,1.91.77,1.71.85.27,1.63-.47,2.4-1.42,3.42.94,1,2.55,3.1,4.26,4a5.84,5.84,0,0,0-1.42,2.28c1.08.21,1.45.94,1.7,2.56L389,176.58l-3.41.28c0,1.19-.93,3.16-2,3.42.9,2.19,1.53,3.49,2.85,3.7-.35,1.64-.23,3.66-1.71,3.42l-1.14,1.71c1.67.3.63,1.61.57,3.42,1.89-.59,3.65,1.08,4.55.85,0,1.38-.27,1.2.28,1.71,1.89,1.49,1.77,1.11,2.84,3.13h.29l2.84-1.42c0-.58,0-2.24.85-2.85,0,0,4.11-1.55,4.26-1.14,2.11-3.05,3.29-3.8,4.55-7.69l.57-.28c3.75,2.15,2,2.41,4.54,4.84.69-1,2.51.31,3.13,1.42-1.09,1.76-1.17,1.63-1.14,3.71,1.59-.44,1.11-.41,1.71.28s.65.92.85,2c-2.75,1.34.34,4.34,1.13,5.12-.3,4.63,5.17,13.37,7.68,14.81l.56-.57c-.18.67-.38,1.33-.56,2l2.84,1.42.57,5.13-2.28.85v.85c2.26,3,3.57,4.72,6.25,7.69.55-1.09,2.05-1.94,4.26-2,1,1.82,3.58,2.47,4.27,3.7,1.63,2.92,0,3.86,1.42,5.41l.56-.28c.21.56.42,2-.56,1.42l-.86,1.71c3.35.44,1.39,5.93,3.41,8l5.69,4.27,1.13-.29c-.56-1.73-.54-2.43-.28-2.84,0-1.89,2.18-4.07,4.83-4.56.18.62-.26,1.14.85.85.57,1.09,4.79,0,5.68,1.14.9,0,0,.15.86.29,1-.08,3.21-.6,4,1.14a33.75,33.75,0,0,0,2-4.27,10.22,10.22,0,0,1,3.7-2.57v.57c1.2.25.47.69,1.7,1.71,1.57-1.14,3.16.22,3.69.29a3.59,3.59,0,0,0,2.84-.86l-.56-.28v-.29l3.12.86c.65-.39,2.76-2.85,4-1.43s.1,1.71,1.7,2.85l5.12-2.85c.21.44,6.11.66,6.53,1.14h2v-.85a3.13,3.13,0,0,1-2-.57,9.56,9.56,0,0,1-.28-4l1.7-.57-.85-2.28a3.09,3.09,0,0,1,2.27-1.42c.15.58.07.63,1.14.57a3.52,3.52,0,0,1,.57-2.28h.28c.65.87.64,1.19,1.14,1.42s1.24-.38.85.57a4.22,4.22,0,0,1,2.27,2.85c-.84.55,0,.07-.57.85,1.53-.32,1-.06,2,.29-.91,4.19,2.17,3.56,3.7,8,5.19-.66,3.12,22.52,3.12,30.19q.15,50,.29,100H290.39V285.09c1.28-3,2.56-3,2-7.41l1.42-.28c-.85-3-1.56-2.87-1.71-5.7,2-.24,1.62-2.82,3.41-3.41v-1.43l-3.12-1.14-.57-2.85h-2c.08,1.28-.07.53-.85,1.14l-1.14-2.56c-.84.36-2.43,1.64-2.84.86a2.33,2.33,0,0,1-1.71-1.43l-.28-.57,1.14-.85v-2c-1.39,0-1.85-1.3-2-2.28,1.23-.8,1.15-5.19,1.7-6l2.27-1.7c.93-1.63,1.24-7.22,3.13-10.26l4-2c2.62-3.34,2-4.62,4.54-7.69.94-1.12-.95-3.15-.85-4.56,1.34-.22,3.52-6.35,5.4-9.4v-2.84c2.51-4.72,4.66-15.61,9.38-19.66-.1-.56-2.6-8.21-3.7-9.68a5.9,5.9,0,0,1-5.4-3.13c-1.71.54-2,.37-2.55-.29-1.5-.3-6.75-11.43-7.67-14.24,1.39-1.15,1.12-2.27,2.27-4.55-.42-.08-.72.38-1.14-.29s.25-3.32-.28-4-3.84-4.06-4.26-6.26c1.67-1.27.85-28.68.85-37,0-38,.58-74.54.57-111.64Z"/><path class="cls-35" d="M405.17,184.55h0Z"/><path class="cls-35" d="M420.51,213.32l.28.57-.28-.57Z"/><path class="cls-35" d="M429.89,232.69c.09.19.18.38.28.56-.1-.18-.19-.37-.28-.56Z"/><text class="cls-3" transform="translate(303.51 82.72)">North <tspan x="0.22" y="6.84">Idaho</tspan><tspan x="-2.91" y="13.67">Cha</tspan><tspan class="cls-11" x="7.75" y="13.67">p</tspan><tspan class="cls-12" x="11.4" y="13.67">t</tspan><tspan x="13.68" y="13.67">er</tspan></text><text class="cls-3" transform="translate(336.2 153.87)">North<tspan x="-1.86" y="6.84">Ce</tspan><tspan class="cls-15" x="5.2" y="6.84">n</tspan><tspan x="8.8" y="6.84">t</tspan><tspan class="cls-27" x="11.17" y="6.84">r</tspan><tspan x="13.46" y="6.84">al </tspan><tspan x="0.22" y="13.67">Idaho</tspan><tspan x="-2.91" y="20.51">Cha</tspan><tspan class="cls-11" x="7.75" y="20.51">p</tspan><tspan class="cls-12" x="11.4" y="20.51">t</tspan><tspan x="13.68" y="20.51">er</tspan></text><path class="cls-36" d="M443.28,276.32a.86.86,0,0,1,0,.17.3.3,0,0,1,0,.1.15.15,0,0,1,0,.06l-.06,0H441a.24.24,0,0,1-.18-.07.26.26,0,0,1-.08-.21v-3.77a.29.29,0,0,1,.08-.21.28.28,0,0,1,.18-.06h2.21a.13.13,0,0,1,0,.06l0,.11s0,.1,0,.16,0,.12,0,.16a.81.81,0,0,1,0,.11.09.09,0,0,1,0,.06l-.05,0H441.6v1h1.3l.06,0a.15.15,0,0,1,0,.06.25.25,0,0,1,0,.1,1.28,1.28,0,0,1,0,.32.3.3,0,0,1,0,.1.11.11,0,0,1,0,.05.07.07,0,0,1-.06,0h-1.3V276h1.55l.06,0a.15.15,0,0,1,0,.06.25.25,0,0,1,0,.1A.81.81,0,0,1,443.28,276.32Z"/><path class="cls-36" d="M446.45,276.56a.1.1,0,0,1,0,.08.23.23,0,0,1-.1,0h-.44a.19.19,0,0,1-.09,0,.1.1,0,0,1,0-.08v-.23a1.25,1.25,0,0,1-.42.3,1.13,1.13,0,0,1-.52.11,1.51,1.51,0,0,1-.44-.06,1,1,0,0,1-.34-.18.86.86,0,0,1-.23-.3,1.08,1.08,0,0,1-.08-.42,1,1,0,0,1,.11-.46.74.74,0,0,1,.3-.31,1.34,1.34,0,0,1,.5-.19,3.58,3.58,0,0,1,.7-.06h.29v-.18a.88.88,0,0,0,0-.24.51.51,0,0,0-.09-.18.35.35,0,0,0-.18-.1.68.68,0,0,0-.26,0,1.46,1.46,0,0,0-.38.05l-.29.1-.21.11a.33.33,0,0,1-.14,0,.08.08,0,0,1-.07,0s0,0,0-.07a.17.17,0,0,1,0-.1.66.66,0,0,1,0-.14.81.81,0,0,1,0-.17.36.36,0,0,1,.07-.1.44.44,0,0,1,.16-.11,1.69,1.69,0,0,1,.27-.11l.35-.08a2.34,2.34,0,0,1,.38,0,2.64,2.64,0,0,1,.6.06,1.22,1.22,0,0,1,.41.21.93.93,0,0,1,.23.37,1.7,1.7,0,0,1,.07.53Zm-.82-1.27h-.32a1.75,1.75,0,0,0-.35,0,.69.69,0,0,0-.23.09.34.34,0,0,0-.13.14.46.46,0,0,0-.05.2.37.37,0,0,0,.12.29.49.49,0,0,0,.33.11.63.63,0,0,0,.33-.09,1.39,1.39,0,0,0,.3-.26Z"/><path class="cls-36" d="M449.39,275.71a.93.93,0,0,1-.1.45.76.76,0,0,1-.27.32,1,1,0,0,1-.41.2,2,2,0,0,1-.51.06,1.67,1.67,0,0,1-.32,0l-.27-.06-.2-.08-.12-.08a.36.36,0,0,1-.06-.11,1.28,1.28,0,0,1,0-.22V276s0-.07,0-.09a.1.1,0,0,1,0-.05h0a.3.3,0,0,1,.11,0l.18.1.25.09a1.08,1.08,0,0,0,.32,0,.68.68,0,0,0,.21,0l.15-.07a.36.36,0,0,0,.1-.11.33.33,0,0,0,0-.15.25.25,0,0,0-.06-.17.59.59,0,0,0-.17-.13l-.23-.1-.26-.1-.26-.13a1,1,0,0,1-.23-.18.78.78,0,0,1-.17-.26,1,1,0,0,1-.06-.36.86.86,0,0,1,.09-.39.79.79,0,0,1,.24-.31,1,1,0,0,1,.38-.19,1.59,1.59,0,0,1,.5-.07,1.27,1.27,0,0,1,.28,0l.23,0,.18.06.11.06s0,0,0,.05a.14.14,0,0,1,0,.06s0,.05,0,.09v.27a.64.64,0,0,1,0,.09.11.11,0,0,1,0,.05h-.05l-.09,0a1.19,1.19,0,0,0-.16-.08l-.22-.08a1.23,1.23,0,0,0-.29,0l-.19,0-.14.07a.25.25,0,0,0-.08.1.28.28,0,0,0,0,.13.22.22,0,0,0,.07.17.4.4,0,0,0,.16.12,1.33,1.33,0,0,0,.24.1l.27.11a1.58,1.58,0,0,1,.26.13.81.81,0,0,1,.24.17.87.87,0,0,1,.16.26A.78.78,0,0,1,449.39,275.71Z"/><path class="cls-36" d="M451.71,276.26a1.3,1.3,0,0,1,0,.23.58.58,0,0,1-.05.11.19.19,0,0,1-.09,0l-.14.05-.17,0h-.18a1.46,1.46,0,0,1-.44-.06.69.69,0,0,1-.3-.2.75.75,0,0,1-.18-.33,1.65,1.65,0,0,1-.05-.47v-1.53h-.36a.1.1,0,0,1-.1-.08,1.19,1.19,0,0,1,0-.42.36.36,0,0,1,0-.11l0,0,.06,0h.36v-.66a.13.13,0,0,1,0-.06l.07-.05.13,0h.41l.13,0s.05,0,.06.05a.07.07,0,0,1,0,.06v.66h.65l.06,0a.1.1,0,0,1,0,0l0,.11s0,.1,0,.16a.69.69,0,0,1,0,.26c0,.06-.05.08-.1.08h-.65v1.4a.73.73,0,0,0,.08.37.29.29,0,0,0,.27.12h.12l.1,0,.07,0h.09l0,.05a.58.58,0,0,0,0,.1S451.71,276.2,451.71,276.26Z"/><path class="cls-36" d="M455,275a.32.32,0,0,1-.07.23.27.27,0,0,1-.19.07h-1.81a1.16,1.16,0,0,0,0,.34.58.58,0,0,0,.14.27.63.63,0,0,0,.25.16,1.06,1.06,0,0,0,.37.06,2.21,2.21,0,0,0,.39,0l.29-.07.2-.07.13,0h0a.08.08,0,0,1,0,0s0,.05,0,.08v.27a.28.28,0,0,0,0,.09s0,0,0,.06l0,.05-.12.06a1.67,1.67,0,0,1-.24.08l-.35.07-.41,0a2.11,2.11,0,0,1-.7-.1,1.16,1.16,0,0,1-.5-.3,1.44,1.44,0,0,1-.3-.51,2.65,2.65,0,0,1-.09-.73,2.32,2.32,0,0,1,.1-.72,1.57,1.57,0,0,1,.3-.54,1.27,1.27,0,0,1,.48-.34,1.81,1.81,0,0,1,.63-.11,1.53,1.53,0,0,1,.64.11,1.08,1.08,0,0,1,.44.3,1.29,1.29,0,0,1,.25.46,2.21,2.21,0,0,1,.08.59Zm-.81-.24a.87.87,0,0,0-.15-.56.55.55,0,0,0-.47-.2.57.57,0,0,0-.27.06.53.53,0,0,0-.2.16.9.9,0,0,0-.12.24,1.34,1.34,0,0,0,0,.3Z"/><path class="cls-36" d="M457.58,273.85v.2c0,.05,0,.09,0,.12a.09.09,0,0,1,0,.06l0,0h-.06l-.08,0-.09,0h-.11a.35.35,0,0,0-.14,0l-.15.09a.78.78,0,0,0-.15.16,1.8,1.8,0,0,0-.18.25v1.85s0,.05,0,.06,0,0-.07,0a.35.35,0,0,1-.12,0h-.41a.35.35,0,0,1-.13,0s-.06,0-.07,0a.08.08,0,0,1,0-.06v-3a.08.08,0,0,1,0-.06.09.09,0,0,1,.06,0l.11,0h.35l.11,0a.1.1,0,0,1,.05,0,.08.08,0,0,1,0,.06V274a2.5,2.5,0,0,1,.22-.28,1,1,0,0,1,.2-.17.76.76,0,0,1,.18-.09.62.62,0,0,1,.19,0h.09l.11,0,.09,0a.09.09,0,0,1,.06,0l0,0a.11.11,0,0,1,0,.06s0,.06,0,.1Z"/><path class="cls-36" d="M461,276.55a.08.08,0,0,1,0,.06l-.07,0a.42.42,0,0,1-.13,0h-.41a.5.5,0,0,1-.13,0,.09.09,0,0,1-.06,0s0,0,0-.06v-1.7a1.58,1.58,0,0,0,0-.34,1,1,0,0,0-.1-.21.37.37,0,0,0-.15-.13.4.4,0,0,0-.22-.05.62.62,0,0,0-.33.11,2.17,2.17,0,0,0-.34.34v2s0,.05,0,.06,0,0-.07,0a.35.35,0,0,1-.12,0h-.41a.35.35,0,0,1-.13,0s-.06,0-.07,0a.08.08,0,0,1,0-.06v-3a.08.08,0,0,1,0-.06.09.09,0,0,1,.06,0l.11,0h.35l.11,0a.1.1,0,0,1,.05,0,.08.08,0,0,1,0,.06v.34a1.79,1.79,0,0,1,.5-.4,1.12,1.12,0,0,1,.53-.13,1.15,1.15,0,0,1,.52.1.73.73,0,0,1,.33.27,1.06,1.06,0,0,1,.19.4,2.2,2.2,0,0,1,.06.55Z"/><path class="cls-36" d="M444.82,284.75a.14.14,0,0,1,0,.06l-.07,0a.49.49,0,0,1-.14,0h-.42a.49.49,0,0,1-.14,0s-.06,0-.07,0a.14.14,0,0,1,0-.06v-4.08a.14.14,0,0,1,0-.06s0,0,.07,0l.14,0h.42l.14,0,.07,0a.14.14,0,0,1,0,.06Z"/><path class="cls-36" d="M448.54,284.76a.14.14,0,0,1,0,.06.09.09,0,0,1-.06,0l-.11,0H448l-.11,0a.09.09,0,0,1-.06,0,.14.14,0,0,1,0-.06v-.33a1.87,1.87,0,0,1-.48.38,1.16,1.16,0,0,1-.56.14,1.23,1.23,0,0,1-.57-.13,1.12,1.12,0,0,1-.39-.36,1.42,1.42,0,0,1-.21-.52,2.59,2.59,0,0,1-.07-.63,2.55,2.55,0,0,1,.09-.71,1.63,1.63,0,0,1,.24-.55,1.12,1.12,0,0,1,.41-.34,1.25,1.25,0,0,1,.56-.12,1,1,0,0,1,.46.1,1.74,1.74,0,0,1,.4.3v-1.61a.14.14,0,0,1,0-.06s0,0,.07-.05l.12,0h.41l.13,0s.05,0,.06.05a.09.09,0,0,1,0,.06Zm-.84-2a1.65,1.65,0,0,0-.35-.35.56.56,0,0,0-.34-.12.51.51,0,0,0-.28.08.67.67,0,0,0-.19.22,1,1,0,0,0-.11.31,1.86,1.86,0,0,0,0,.34,2.21,2.21,0,0,0,0,.37,1.4,1.4,0,0,0,.09.31.59.59,0,0,0,.19.22.43.43,0,0,0,.28.09.47.47,0,0,0,.17,0,.44.44,0,0,0,.17-.08l.17-.15a2.3,2.3,0,0,0,.2-.22Z"/><path class="cls-36" d="M451.92,284.77a.08.08,0,0,1,0,.07.19.19,0,0,1-.1,0h-.43a.19.19,0,0,1-.1,0,.09.09,0,0,1,0-.07v-.24a1.43,1.43,0,0,1-.42.31,1.24,1.24,0,0,1-.52.11,1.44,1.44,0,0,1-.43-.06,1,1,0,0,1-.35-.19.73.73,0,0,1-.22-.3,1.1,1.1,0,0,1,0-.87.84.84,0,0,1,.3-.32,1.63,1.63,0,0,1,.5-.18,3.65,3.65,0,0,1,.7-.06h.29v-.18a.9.9,0,0,0,0-.25.38.38,0,0,0-.09-.18.4.4,0,0,0-.17-.1,1.12,1.12,0,0,0-.27,0,1.48,1.48,0,0,0-.38,0l-.29.11-.21.1a.34.34,0,0,1-.14,0,.11.11,0,0,1-.07,0,.15.15,0,0,1,0-.06l0-.11a.61.61,0,0,1,0-.14.63.63,0,0,1,0-.16.24.24,0,0,1,.06-.11l.16-.11.28-.11.34-.08a2.34,2.34,0,0,1,.38,0,2.06,2.06,0,0,1,.6.07.89.89,0,0,1,.41.21.8.8,0,0,1,.23.36,1.69,1.69,0,0,1,.08.53Zm-.83-1.28h-.32a1.65,1.65,0,0,0-.34,0,.67.67,0,0,0-.24.09.37.37,0,0,0-.13.15.45.45,0,0,0,.08.49.47.47,0,0,0,.33.1.62.62,0,0,0,.32-.09,1.16,1.16,0,0,0,.3-.26Z"/><path class="cls-36" d="M455.6,284.76a.14.14,0,0,1,0,.06l-.07,0-.13,0H455l-.13,0-.07,0a.14.14,0,0,1,0-.06v-1.7a1.46,1.46,0,0,0,0-.34.67.67,0,0,0-.09-.21.36.36,0,0,0-.16-.14.51.51,0,0,0-.22-.05.53.53,0,0,0-.32.12,1.56,1.56,0,0,0-.34.34v2a.14.14,0,0,1,0,.06l-.07,0-.13,0H453l-.13,0-.07,0a.13.13,0,0,1,0-.06v-4.39a.13.13,0,0,1,0-.06l.07-.05.13,0h.41l.13,0,.07.05a.14.14,0,0,1,0,.06V282a1.59,1.59,0,0,1,.44-.32,1.24,1.24,0,0,1,.47-.1,1.13,1.13,0,0,1,.51.1,1,1,0,0,1,.34.27,1.38,1.38,0,0,1,.18.41,2.23,2.23,0,0,1,.06.56Z"/><path class="cls-36" d="M459.43,283.24a2.17,2.17,0,0,1-.1.69,1.35,1.35,0,0,1-.81.89,1.75,1.75,0,0,1-.72.13,2.08,2.08,0,0,1-.69-.11,1.39,1.39,0,0,1-.49-.32,1.37,1.37,0,0,1-.28-.52,2.15,2.15,0,0,1-.1-.7,2.57,2.57,0,0,1,.1-.7,1.44,1.44,0,0,1,.31-.54,1.54,1.54,0,0,1,.51-.35,1.94,1.94,0,0,1,.72-.12,2.08,2.08,0,0,1,.69.11,1.2,1.2,0,0,1,.49.32,1.4,1.4,0,0,1,.28.51A2.55,2.55,0,0,1,459.43,283.24Zm-.86,0a2.5,2.5,0,0,0,0-.4,1.42,1.42,0,0,0-.12-.33.58.58,0,0,0-.23-.21.68.68,0,0,0-.34-.08.81.81,0,0,0-.33.07.63.63,0,0,0-.23.2,1,1,0,0,0-.14.32,1.76,1.76,0,0,0,0,.42,2.63,2.63,0,0,0,0,.41,1.33,1.33,0,0,0,.12.32.58.58,0,0,0,.23.21.68.68,0,0,0,.34.08.81.81,0,0,0,.33-.07.56.56,0,0,0,.23-.2.94.94,0,0,0,.14-.32A1.76,1.76,0,0,0,458.57,283.27Z"/><path class="cls-36" d="M443,292.42a.57.57,0,0,1,0,.14s0,.08,0,.1a.24.24,0,0,1,0,.07.18.18,0,0,1-.05.07l-.14.1-.26.12-.35.09a2.72,2.72,0,0,1-.42,0,2.24,2.24,0,0,1-.8-.14,1.6,1.6,0,0,1-.61-.41,1.67,1.67,0,0,1-.38-.68,3,3,0,0,1-.14-.95,3,3,0,0,1,.15-1,2,2,0,0,1,.41-.71,1.71,1.71,0,0,1,.63-.44,2.18,2.18,0,0,1,.82-.15,1.87,1.87,0,0,1,.34,0l.31.07a1.57,1.57,0,0,1,.26.12.91.91,0,0,1,.16.1l.06.08a.19.19,0,0,1,0,.08.31.31,0,0,1,0,.11v.32l0,.12a.09.09,0,0,1,0,.06l-.05,0a.24.24,0,0,1-.13-.06l-.2-.13a1.32,1.32,0,0,0-.29-.13,1.16,1.16,0,0,0-.4-.06,1,1,0,0,0-.46.11,1,1,0,0,0-.34.3,1.36,1.36,0,0,0-.22.47,2.43,2.43,0,0,0-.07.63,2.59,2.59,0,0,0,.08.66,1.35,1.35,0,0,0,.22.45,1,1,0,0,0,.35.27,1.16,1.16,0,0,0,.47.09,1.22,1.22,0,0,0,.69-.18l.2-.12a.28.28,0,0,1,.12-.05H443a.16.16,0,0,1,0,.06.27.27,0,0,1,0,.11S443,292.34,443,292.42Z"/><path class="cls-36" d="M446.45,293a.14.14,0,0,1,0,.06s0,0-.07,0l-.12,0h-.41l-.13,0-.07,0a.14.14,0,0,1,0-.06v-1.7a1.58,1.58,0,0,0,0-.34.67.67,0,0,0-.09-.21.5.5,0,0,0-.15-.14.51.51,0,0,0-.55.07,1.81,1.81,0,0,0-.34.34v2a.14.14,0,0,1,0,.06s0,0-.07,0l-.13,0h-.41l-.12,0s-.06,0-.07,0a.07.07,0,0,1,0-.06v-4.39a.07.07,0,0,1,0-.06s0,0,.07,0l.12,0h.41l.13,0s.06,0,.07,0a.14.14,0,0,1,0,.06v1.65a1.59,1.59,0,0,1,.44-.32,1.12,1.12,0,0,1,.47-.11,1.29,1.29,0,0,1,.51.1.93.93,0,0,1,.34.28.91.91,0,0,1,.18.4,2.37,2.37,0,0,1,.06.57Z"/><path class="cls-36" d="M449.81,293a.11.11,0,0,1,0,.08.24.24,0,0,1-.1,0l-.22,0-.22,0a.19.19,0,0,1-.09,0,.11.11,0,0,1,0-.08v-.24a1.15,1.15,0,0,1-.42.31,1.13,1.13,0,0,1-.52.11,1.51,1.51,0,0,1-.44-.06,1,1,0,0,1-.34-.18.9.9,0,0,1-.23-.31,1.08,1.08,0,0,1-.08-.42,1.06,1.06,0,0,1,.1-.45.86.86,0,0,1,.31-.32,1.54,1.54,0,0,1,.5-.18,3.58,3.58,0,0,1,.7-.06H449V291a1,1,0,0,0,0-.25.46.46,0,0,0-.09-.17.35.35,0,0,0-.18-.1.68.68,0,0,0-.26,0,1.4,1.4,0,0,0-.38.05,1.63,1.63,0,0,0-.29.1,1,1,0,0,0-.21.11.33.33,0,0,1-.14,0l-.07,0a.16.16,0,0,1,0-.07.17.17,0,0,1,0-.1.71.71,0,0,1,0-.15.76.76,0,0,1,0-.16.23.23,0,0,1,.07-.11.44.44,0,0,1,.16-.1,1.69,1.69,0,0,1,.27-.11,1.8,1.8,0,0,1,.35-.08,1.58,1.58,0,0,1,.38,0,2.6,2.6,0,0,1,.6.07,1.22,1.22,0,0,1,.41.21.93.93,0,0,1,.23.37,1.66,1.66,0,0,1,.07.53ZM449,291.7h-.32a1.75,1.75,0,0,0-.35,0,.69.69,0,0,0-.23.09.34.34,0,0,0-.13.14.42.42,0,0,0,0,.2.37.37,0,0,0,.12.29.49.49,0,0,0,.33.11.63.63,0,0,0,.33-.09,1.22,1.22,0,0,0,.3-.27Z"/><path class="cls-36" d="M453.65,291.43a2.73,2.73,0,0,1-.09.72,1.67,1.67,0,0,1-.24.54,1.12,1.12,0,0,1-.41.34,1.25,1.25,0,0,1-.56.12l-.24,0a.9.9,0,0,1-.21-.08,1.13,1.13,0,0,1-.2-.13l-.21-.18v1.4s0,.05,0,.06a.1.1,0,0,1-.07.05l-.12,0h-.41l-.13,0a.13.13,0,0,1-.07-.05.08.08,0,0,1,0-.06V290a.08.08,0,0,1,0-.05s0,0,.06-.05l.11,0h.34l.11,0,.06.05a.07.07,0,0,1,0,.05v.36a2.84,2.84,0,0,1,.26-.24,1.23,1.23,0,0,1,.25-.17,1,1,0,0,1,.27-.1,1,1,0,0,1,.3,0,1.15,1.15,0,0,1,.55.13,1.16,1.16,0,0,1,.38.35,1.47,1.47,0,0,1,.21.53A2.53,2.53,0,0,1,453.65,291.43Zm-.88.06c0-.13,0-.25,0-.37a1.41,1.41,0,0,0-.1-.31.79.79,0,0,0-.18-.22.52.52,0,0,0-.45,0,.48.48,0,0,0-.16.08l-.18.15-.19.22v1a2.28,2.28,0,0,0,.34.35.56.56,0,0,0,.33.12.43.43,0,0,0,.28-.09.55.55,0,0,0,.19-.21,1,1,0,0,0,.11-.31A2,2,0,0,0,452.77,291.49Z"/><path class="cls-36" d="M456.06,292.67a1.09,1.09,0,0,1,0,.22.19.19,0,0,1-.05.11l-.09.06-.14,0a.43.43,0,0,1-.17,0h-.18a1.46,1.46,0,0,1-.44-.06.69.69,0,0,1-.3-.2.81.81,0,0,1-.18-.33,2.12,2.12,0,0,1-.05-.47v-1.53h-.36s-.07,0-.1-.08a.79.79,0,0,1,0-.26.76.76,0,0,1,0-.16.31.31,0,0,1,0-.11l0-.05.05,0h.36v-.66s0,0,0-.06a.1.1,0,0,1,.06,0l.13,0h.41l.13,0a.18.18,0,0,1,.07,0,.08.08,0,0,1,0,.06v.66h.64l.06,0a.1.1,0,0,1,0,.05.81.81,0,0,1,0,.11s0,.1,0,.16a.56.56,0,0,1,0,.26c0,.06,0,.08-.09.08h-.65V292a.76.76,0,0,0,.07.37.3.3,0,0,0,.28.12h.12l.09,0,.07,0H456l0,.05a.64.64,0,0,1,0,.09S456.06,292.61,456.06,292.67Z"/><path class="cls-36" d="M459.33,291.39a.29.29,0,0,1-.07.22.24.24,0,0,1-.19.08h-1.81a1.21,1.21,0,0,0,.05.34.58.58,0,0,0,.39.43,1.08,1.08,0,0,0,.38.06,2.17,2.17,0,0,0,.38,0l.29-.07.2-.07a.3.3,0,0,1,.13,0l.05,0s0,0,0,0,0,.05,0,.08v.27a.25.25,0,0,0,0,.08.64.64,0,0,1,0,.07l0,.05L459,293l-.24.08-.35.06a2.63,2.63,0,0,1-.41,0,2.11,2.11,0,0,1-.7-.1,1.14,1.14,0,0,1-.79-.82,2.24,2.24,0,0,1-.1-.72,2.28,2.28,0,0,1,.1-.72,1.57,1.57,0,0,1,.3-.54,1.27,1.27,0,0,1,.48-.34,1.62,1.62,0,0,1,.64-.12,1.69,1.69,0,0,1,.63.11,1.17,1.17,0,0,1,.69.77,2.14,2.14,0,0,1,.08.58Zm-.81-.24a.85.85,0,0,0-.15-.56.54.54,0,0,0-.46-.2.61.61,0,0,0-.28.06.53.53,0,0,0-.2.16.9.9,0,0,0-.12.24,1.34,1.34,0,0,0-.05.3Z"/><path class="cls-36" d="M461.93,290.26v.2c0,.05,0,.09,0,.12a.09.09,0,0,1,0,.06l-.05,0-.06,0-.08,0-.09,0h-.11a.35.35,0,0,0-.14,0l-.15.09a.78.78,0,0,0-.15.16c-.06.07-.11.15-.18.25V293a.07.07,0,0,1,0,.06s0,0-.07,0l-.12,0h-.41l-.13,0s-.06,0-.07,0a.14.14,0,0,1,0-.06v-3a.08.08,0,0,1,0-.05s0,0,.06-.05l.11,0h.35l.11,0,.05.05a.08.08,0,0,1,0,.05v.37a2.3,2.3,0,0,1,.22-.27,1,1,0,0,1,.2-.17.76.76,0,0,1,.18-.09l.19,0h.09l.11,0,.09,0,.06,0,0,0a.35.35,0,0,1,0,.06.25.25,0,0,1,0,.1Z"/><text class="cls-3" transform="translate(326.05 309.78)">Capi<tspan class="cls-28" x="12.34" y="0">t</tspan><tspan x="14.64" y="0">ol </tspan><tspan x="3.34" y="6.84">A</tspan><tspan class="cls-6" x="7.49" y="6.84">r</tspan><tspan x="9.84" y="6.84">ea</tspan><tspan x="-1.23" y="13.67">Cha</tspan><tspan class="cls-11" x="9.43" y="13.67">p</tspan><tspan class="cls-12" x="13.07" y="13.67">t</tspan><tspan x="15.36" y="13.67">er</tspan></text><text class="cls-3" transform="translate(391.03 342.44)">South<tspan x="-1.88" y="6.84">Ce</tspan><tspan class="cls-15" x="5.18" y="6.84">n</tspan><tspan x="8.79" y="6.84">t</tspan><tspan class="cls-27" x="11.16" y="6.84">r</tspan><tspan x="13.44" y="6.84">al </tspan><tspan x="0.2" y="13.67">Idaho</tspan><tspan x="-2.92" y="20.51">Cha</tspan><tspan class="cls-11" x="7.74" y="20.51">p</tspan><tspan class="cls-12" x="11.38" y="20.51">t</tspan><tspan x="13.67" y="20.51">er</tspan></text><path class="cls-36" d="M471.18,351.4a1.62,1.62,0,0,1-.11.64,1.15,1.15,0,0,1-.33.47,1.3,1.3,0,0,1-.53.29,2.37,2.37,0,0,1-.74.1h-.37v1.38s0,.05,0,.06a.13.13,0,0,1-.07.05l-.13,0h-.43l-.13,0a.1.1,0,0,1-.07-.05s0,0,0-.06V350.4a.31.31,0,0,1,.08-.24.29.29,0,0,1,.21-.08h1l.29,0a1.55,1.55,0,0,1,.34,0,1.16,1.16,0,0,1,.94.77A1.43,1.43,0,0,1,471.18,351.4Zm-.91.06a.78.78,0,0,0-.08-.37.62.62,0,0,0-.2-.22.58.58,0,0,0-.25-.09l-.26,0h-.38v1.47h.4a.88.88,0,0,0,.35-.06.56.56,0,0,0,.23-.16.72.72,0,0,0,.14-.24A1.06,1.06,0,0,0,470.27,351.46Z"/><path class="cls-36" d="M474.72,352.77a2.57,2.57,0,0,1-.1.7,1.53,1.53,0,0,1-.31.54,1.36,1.36,0,0,1-.51.35,1.94,1.94,0,0,1-.72.12,2.08,2.08,0,0,1-.69-.11,1.16,1.16,0,0,1-.48-.32,1.26,1.26,0,0,1-.29-.52,2.46,2.46,0,0,1-.1-.7,2.17,2.17,0,0,1,.11-.69,1.35,1.35,0,0,1,.3-.54,1.3,1.3,0,0,1,.51-.35,1.75,1.75,0,0,1,.72-.13,2,2,0,0,1,.69.11,1.2,1.2,0,0,1,.49.32,1.24,1.24,0,0,1,.28.52A2.46,2.46,0,0,1,474.72,352.77Zm-.87,0a2.5,2.5,0,0,0,0-.4,1.33,1.33,0,0,0-.12-.32.66.66,0,0,0-.22-.22.75.75,0,0,0-.35-.07.81.81,0,0,0-.33.06.74.74,0,0,0-.23.2,1,1,0,0,0-.14.32,1.87,1.87,0,0,0,0,.42,1.73,1.73,0,0,0,0,.41,1,1,0,0,0,.11.32.58.58,0,0,0,.23.21.71.71,0,0,0,.34.08.67.67,0,0,0,.33-.07.5.5,0,0,0,.23-.2.89.89,0,0,0,.14-.31A1.91,1.91,0,0,0,473.85,352.8Z"/><path class="cls-36" d="M477.63,353.82V354s0,.07,0,.1a.25.25,0,0,0,0,.07l-.06.06a.56.56,0,0,1-.13.09l-.22.1-.27.07a1.53,1.53,0,0,1-.3,0,1.66,1.66,0,0,1-.61-.11,1.12,1.12,0,0,1-.45-.32,1.26,1.26,0,0,1-.27-.5,2.4,2.4,0,0,1-.09-.69,2.46,2.46,0,0,1,.11-.77,1.56,1.56,0,0,1,.31-.54,1.27,1.27,0,0,1,.48-.32,1.64,1.64,0,0,1,.6-.1,1.1,1.1,0,0,1,.26,0,1.4,1.4,0,0,1,.24.06l.2.09.13.09.05.06a.14.14,0,0,1,0,.07s0,.06,0,.09v.15a.82.82,0,0,1,0,.27c0,.05,0,.08-.09.08a.21.21,0,0,1-.12-.05l-.15-.1a1,1,0,0,0-.21-.11.79.79,0,0,0-.28,0,.55.55,0,0,0-.5.25,1.26,1.26,0,0,0-.18.74,2.5,2.5,0,0,0,0,.42,1.11,1.11,0,0,0,.13.31.55.55,0,0,0,.22.18.56.56,0,0,0,.3.07.73.73,0,0,0,.3-.06,1,1,0,0,0,.21-.11.74.74,0,0,0,.16-.12.21.21,0,0,1,.11-.05l.05,0,0,.06s0,.07,0,.12Z"/><path class="cls-36" d="M480.74,354.3a.07.07,0,0,1,0,.07.19.19,0,0,1-.1,0h-.43a.19.19,0,0,1-.1,0,.08.08,0,0,1,0-.07v-.24a1.35,1.35,0,0,1-.41.31,1.32,1.32,0,0,1-.53.11,1.44,1.44,0,0,1-.43-.06.85.85,0,0,1-.35-.19.84.84,0,0,1-.22-.3,1.1,1.1,0,0,1,0-.87.91.91,0,0,1,.3-.32,1.6,1.6,0,0,1,.51-.18,3.54,3.54,0,0,1,.69-.06h.29v-.18a.9.9,0,0,0,0-.25.26.26,0,0,0-.09-.17.42.42,0,0,0-.17-.11,1,1,0,0,0-.27,0,1.46,1.46,0,0,0-.38.05l-.29.1-.21.1a.34.34,0,0,1-.14.05l-.06,0a.18.18,0,0,1,0-.07.81.81,0,0,1,0-.11.61.61,0,0,1,0-.14.63.63,0,0,1,0-.16.24.24,0,0,1,.06-.11.71.71,0,0,1,.17-.11,1.18,1.18,0,0,1,.27-.1,2.79,2.79,0,0,1,.34-.09,2.34,2.34,0,0,1,.38,0,2.06,2.06,0,0,1,.6.07,1.13,1.13,0,0,1,.41.21.75.75,0,0,1,.23.37,1.64,1.64,0,0,1,.08.53Zm-.83-1.28h-.32a1.65,1.65,0,0,0-.34,0,.93.93,0,0,0-.24.09.37.37,0,0,0-.13.15.42.42,0,0,0,0,.2.37.37,0,0,0,.12.29.49.49,0,0,0,.33.11.62.62,0,0,0,.32-.09,1.22,1.22,0,0,0,.3-.27Z"/><path class="cls-36" d="M483.28,354a1.18,1.18,0,0,1,0,.22.38.38,0,0,1-.05.11l-.09.06-.14,0-.17,0h-.18a1.46,1.46,0,0,1-.44-.06.79.79,0,0,1-.3-.2.88.88,0,0,1-.18-.33,2.12,2.12,0,0,1,0-.47v-1.53h-.36a.11.11,0,0,1-.1-.08.79.79,0,0,1,0-.26.71.71,0,0,1,0-.16.31.31,0,0,1,0-.11l0,0a.07.07,0,0,1,.06,0h.36v-.67a.13.13,0,0,1,0-.06l.07,0,.13,0h.41l.13,0,.06,0a.07.07,0,0,1,0,.06v.67h.65a.07.07,0,0,1,.06,0,.1.1,0,0,1,0,0,.81.81,0,0,1,0,.11s0,.09,0,.16a.74.74,0,0,1,0,.26.11.11,0,0,1-.1.08h-.65v1.4a.69.69,0,0,0,.08.36.28.28,0,0,0,.27.13l.13,0,.09,0,.07,0h.09a.11.11,0,0,1,0,.05.64.64,0,0,1,0,.09S483.28,353.93,483.28,354Z"/><path class="cls-36" d="M486.55,352.71a.3.3,0,0,1-.07.23.24.24,0,0,1-.19.07h-1.81a1.23,1.23,0,0,0,0,.35.6.6,0,0,0,.14.26.56.56,0,0,0,.25.17,1.08,1.08,0,0,0,.38.06,1.48,1.48,0,0,0,.38,0,1.77,1.77,0,0,0,.29-.07.77.77,0,0,0,.2-.07l.13,0h.05a.1.1,0,0,1,0,.05.45.45,0,0,1,0,.08v.27a.25.25,0,0,0,0,.08s0,.05,0,.06a.1.1,0,0,1,0,.05s0,0-.12.07l-.24.08-.35.06a2.63,2.63,0,0,1-.41,0,2.11,2.11,0,0,1-.7-.1,1.18,1.18,0,0,1-.8-.82,2.6,2.6,0,0,1-.09-.73,2.26,2.26,0,0,1,.1-.71,1.57,1.57,0,0,1,.3-.54,1.27,1.27,0,0,1,.48-.34,1.61,1.61,0,0,1,.63-.12,1.71,1.71,0,0,1,.64.11,1.17,1.17,0,0,1,.69.77,2.14,2.14,0,0,1,.08.58Zm-.81-.24a.84.84,0,0,0-.15-.55.52.52,0,0,0-.46-.2.61.61,0,0,0-.28.06.53.53,0,0,0-.2.16.9.9,0,0,0-.12.24,1.35,1.35,0,0,0,0,.29Z"/><path class="cls-36" d="M488.08,354.29a.07.07,0,0,1,0,.06s0,0-.07,0l-.12,0h-.41l-.13,0s-.06,0-.07,0a.14.14,0,0,1,0-.06V349.9a.14.14,0,0,1,0-.06s0,0,.07,0a.23.23,0,0,1,.13,0h.41a.21.21,0,0,1,.12,0s.06,0,.07,0a.07.07,0,0,1,0,.06Z"/><path class="cls-36" d="M489.76,354.29a.14.14,0,0,1,0,.06s0,0-.07,0l-.13,0h-.4l-.13,0s-.06,0-.07,0a.14.14,0,0,1,0-.06V349.9a.14.14,0,0,1,0-.06s0,0,.07,0a.23.23,0,0,1,.13,0h.4a.23.23,0,0,1,.13,0s.06,0,.07,0a.14.14,0,0,1,0,.06Z"/><path class="cls-36" d="M493.61,352.77a2.24,2.24,0,0,1-.1.7,1.67,1.67,0,0,1-.3.54,1.49,1.49,0,0,1-.52.35,1.92,1.92,0,0,1-.71.12,2,2,0,0,1-.69-.11,1.2,1.2,0,0,1-.49-.32,1.26,1.26,0,0,1-.29-.52,2.48,2.48,0,0,1-.09-.7,2.17,2.17,0,0,1,.1-.69,1.37,1.37,0,0,1,.31-.54,1.19,1.19,0,0,1,.5-.35,1.81,1.81,0,0,1,.72-.13,2.1,2.1,0,0,1,.7.11,1.23,1.23,0,0,1,.48.32,1.38,1.38,0,0,1,.29.52A2.48,2.48,0,0,1,493.61,352.77Zm-.86,0a2.46,2.46,0,0,0,0-.4.82.82,0,0,0-.12-.32.58.58,0,0,0-.22-.22.73.73,0,0,0-.35-.07.88.88,0,0,0-.33.06.74.74,0,0,0-.23.2,1,1,0,0,0-.13.32,1.86,1.86,0,0,0-.05.42,2.48,2.48,0,0,0,0,.41.82.82,0,0,0,.12.32.56.56,0,0,0,.22.21.81.81,0,0,0,.68,0,.55.55,0,0,0,.23-.2.88.88,0,0,0,.13-.31A1.88,1.88,0,0,0,492.75,352.8Z"/><path class="cls-36" d="M478.16,362.28c0,.08,0,.14,0,.19s0,.08,0,.11a.28.28,0,0,1-.13,0h-.52l-.15,0-.07,0,0-.07-.29-.87h-1.62l-.28.85,0,.08-.07.05-.14,0h-.47c-.06,0-.1,0-.12-.05a.13.13,0,0,1,0-.11.59.59,0,0,1,.05-.19l1.33-3.83a.39.39,0,0,1,0-.09.19.19,0,0,1,.09-.05.57.57,0,0,1,.16,0h.59a.66.66,0,0,1,.18,0,.15.15,0,0,1,.09.05.31.31,0,0,1,.05.1Zm-2-3.17h0l-.61,1.84h1.23Z"/><path class="cls-36" d="M480.62,359.79v.2c0,.05,0,.09,0,.12a.09.09,0,0,1,0,.06l-.05,0h-.06l-.08,0-.09,0h-.11a.34.34,0,0,0-.14,0l-.15.09-.15.16c-.06.07-.11.15-.18.25v1.85s0,.05,0,.06a.09.09,0,0,1-.06,0,.5.5,0,0,1-.13,0h-.41a.42.42,0,0,1-.13,0l-.07,0a.08.08,0,0,1,0-.06v-3a.11.11,0,0,1,0-.06.09.09,0,0,1,.06,0l.11,0h.35l.11,0a.1.1,0,0,1,.05,0,.11.11,0,0,1,0,.06v.37a2.5,2.5,0,0,1,.22-.28,1,1,0,0,1,.2-.17l.18-.09a.65.65,0,0,1,.19,0h.09l.11,0,.09,0,.06,0,0,0s0,0,0,.06a.28.28,0,0,1,0,.1Z"/><path class="cls-36" d="M483.82,360.92a.37.37,0,0,1-.07.23.25.25,0,0,1-.19.07h-1.81a1.29,1.29,0,0,0,0,.35.72.72,0,0,0,.14.26.63.63,0,0,0,.26.16,1,1,0,0,0,.37.06,2.21,2.21,0,0,0,.39,0l.29-.07.2-.07.13,0h.05l0,0a.2.2,0,0,1,0,.09s0,.08,0,.13a.53.53,0,0,1,0,.13.28.28,0,0,1,0,.09.14.14,0,0,1,0,.06l0,.05-.12.06-.25.08-.34.07a2.77,2.77,0,0,1-.42,0,2.08,2.08,0,0,1-.69-.11,1.1,1.1,0,0,1-.5-.3,1.35,1.35,0,0,1-.3-.51,2.63,2.63,0,0,1-.1-.73,2.31,2.31,0,0,1,.11-.72,1.3,1.3,0,0,1,.3-.54,1.32,1.32,0,0,1,.47-.34,1.87,1.87,0,0,1,.64-.11,1.56,1.56,0,0,1,.64.11,1.15,1.15,0,0,1,.44.3,1.46,1.46,0,0,1,.25.46,2.21,2.21,0,0,1,.08.59Zm-.82-.24a.87.87,0,0,0-.14-.56.56.56,0,0,0-.47-.2.61.61,0,0,0-.28.06.6.6,0,0,0-.19.16.55.55,0,0,0-.12.24,1,1,0,0,0-.05.3Z"/><path class="cls-36" d="M487,362.5a.1.1,0,0,1,0,.08.23.23,0,0,1-.1,0h-.44a.19.19,0,0,1-.09,0,.1.1,0,0,1,0-.08v-.23a1.43,1.43,0,0,1-.42.31,1.27,1.27,0,0,1-.52.11,1.5,1.5,0,0,1-.44-.07,1,1,0,0,1-.34-.18.86.86,0,0,1-.23-.3,1.08,1.08,0,0,1-.08-.42,1,1,0,0,1,.11-.46.74.74,0,0,1,.3-.31,1.34,1.34,0,0,1,.5-.19,3.58,3.58,0,0,1,.7-.06h.29v-.18a.88.88,0,0,0,0-.24.51.51,0,0,0-.09-.18.35.35,0,0,0-.18-.1,1,1,0,0,0-.26,0,1.4,1.4,0,0,0-.38.05,1.6,1.6,0,0,0-.29.11,1,1,0,0,0-.21.1.33.33,0,0,1-.14,0,.08.08,0,0,1-.07,0s0,0,0-.07a.15.15,0,0,1,0-.1.61.61,0,0,1,0-.14.81.81,0,0,1,0-.17.23.23,0,0,1,.07-.1.44.44,0,0,1,.16-.11,1.69,1.69,0,0,1,.27-.11l.35-.08a2.34,2.34,0,0,1,.38,0,2.15,2.15,0,0,1,.6.07.94.94,0,0,1,.41.21.83.83,0,0,1,.23.36,1.7,1.7,0,0,1,.07.53Zm-.82-1.27h-.32a1.75,1.75,0,0,0-.35,0,.69.69,0,0,0-.23.09.34.34,0,0,0-.13.14.46.46,0,0,0-.05.2.36.36,0,0,0,.12.29.44.44,0,0,0,.33.11.63.63,0,0,0,.33-.09,1.39,1.39,0,0,0,.3-.26Z"/><path class="cls-36" d="M473,370.16v.14s0,.07,0,.1a.09.09,0,0,1,0,.07.23.23,0,0,1-.05.07.46.46,0,0,1-.14.1,1.27,1.27,0,0,1-.26.11,2.31,2.31,0,0,1-.34.1,2.9,2.9,0,0,1-.43,0,2.28,2.28,0,0,1-.8-.13,1.73,1.73,0,0,1-.61-.41,1.94,1.94,0,0,1-.38-.68,3,3,0,0,1-.13-1,3.26,3.26,0,0,1,.14-1,2.3,2.3,0,0,1,.41-.72,1.79,1.79,0,0,1,.64-.44,2.09,2.09,0,0,1,.81-.15,2,2,0,0,1,.35,0l.31.08.25.11.16.11.06.08,0,.07a.37.37,0,0,1,0,.11.81.81,0,0,1,0,.16.86.86,0,0,1,0,.17.27.27,0,0,1,0,.11.43.43,0,0,1,0,.07.11.11,0,0,1-.06,0,.22.22,0,0,1-.12-.06l-.2-.13a1.57,1.57,0,0,0-.29-.13,1.2,1.2,0,0,0-.4-.06,1,1,0,0,0-.46.11,1,1,0,0,0-.35.3,1.46,1.46,0,0,0-.21.47,2.35,2.35,0,0,0-.07.62,2.52,2.52,0,0,0,.07.66,1.32,1.32,0,0,0,.23.46.85.85,0,0,0,.35.27,1.11,1.11,0,0,0,.46.09,1.16,1.16,0,0,0,.4-.06,1.17,1.17,0,0,0,.3-.12l.2-.12a.28.28,0,0,1,.12,0H473l0,.05a.74.74,0,0,0,0,.12Z"/><path class="cls-36" d="M476.46,370.7a.14.14,0,0,1,0,.06l-.07,0-.13,0h-.41l-.12,0a.14.14,0,0,1-.07,0,.14.14,0,0,1,0-.06V369a1.52,1.52,0,0,0,0-.34.67.67,0,0,0-.09-.21.43.43,0,0,0-.16-.14.51.51,0,0,0-.22-.05.56.56,0,0,0-.33.12,1.81,1.81,0,0,0-.34.34v2a.07.07,0,0,1,0,.06l-.06,0-.13,0h-.41l-.13,0-.07,0a.14.14,0,0,1,0-.06v-4.39a.14.14,0,0,1,0-.06l.07-.05.13,0h.41l.13,0s.05,0,.06.05a.07.07,0,0,1,0,.06V368a1.73,1.73,0,0,1,.45-.31,1.07,1.07,0,0,1,.46-.11,1.15,1.15,0,0,1,.52.1.83.83,0,0,1,.33.28,1.06,1.06,0,0,1,.19.4,2.23,2.23,0,0,1,.06.56Z"/><path class="cls-36" d="M479.82,370.71a.08.08,0,0,1,0,.07.19.19,0,0,1-.1,0h-.43a.19.19,0,0,1-.1,0,.09.09,0,0,1,0-.07v-.24a1.35,1.35,0,0,1-.41.31,1.32,1.32,0,0,1-.53.11,1.44,1.44,0,0,1-.43-.06.85.85,0,0,1-.35-.19.84.84,0,0,1-.22-.3,1.1,1.1,0,0,1,0-.87.91.91,0,0,1,.3-.32A1.6,1.6,0,0,1,478,369a3.54,3.54,0,0,1,.69-.06H479v-.18a1.69,1.69,0,0,0,0-.25.32.32,0,0,0-.1-.17.34.34,0,0,0-.17-.11,1,1,0,0,0-.27,0,1.13,1.13,0,0,0-.38.05l-.29.1-.21.1a.34.34,0,0,1-.14.05l-.06,0a.18.18,0,0,1-.05-.07l0-.11a.61.61,0,0,1,0-.14.63.63,0,0,1,0-.16.24.24,0,0,1,.06-.11.71.71,0,0,1,.17-.11,1.86,1.86,0,0,1,.27-.11l.34-.08a2.34,2.34,0,0,1,.38,0,2.06,2.06,0,0,1,.6.07,1,1,0,0,1,.41.21.71.71,0,0,1,.23.37,1.6,1.6,0,0,1,.08.53Zm-.83-1.28h-.32a1.65,1.65,0,0,0-.34,0,.67.67,0,0,0-.24.09.37.37,0,0,0-.13.15.41.41,0,0,0,0,.19.38.38,0,0,0,.12.3.48.48,0,0,0,.33.1.62.62,0,0,0,.32-.09,1.16,1.16,0,0,0,.3-.26Z"/><path class="cls-36" d="M483.65,369.17a2.62,2.62,0,0,1-.08.71,1.5,1.5,0,0,1-.25.54,1.07,1.07,0,0,1-.41.35,1.23,1.23,0,0,1-.55.12.88.88,0,0,1-.24,0,.65.65,0,0,1-.21-.07l-.21-.13-.2-.18v1.4a.14.14,0,0,1,0,.06l-.07.05-.13,0h-.41l-.13,0s-.05,0-.06-.05a.07.07,0,0,1,0-.06v-4.16a.13.13,0,0,1,0-.06.15.15,0,0,1,.06,0l.11,0h.34l.11,0,.06,0a.14.14,0,0,1,0,.06v.35a1.74,1.74,0,0,1,.25-.23,1.57,1.57,0,0,1,.53-.28,1.36,1.36,0,0,1,.29,0,1.08,1.08,0,0,1,.56.13,1.06,1.06,0,0,1,.38.35,1.89,1.89,0,0,1,.21.52A3.24,3.24,0,0,1,483.65,369.17Zm-.87.06a2.22,2.22,0,0,0,0-.37.94.94,0,0,0-.1-.31.49.49,0,0,0-.18-.22.46.46,0,0,0-.27-.08l-.17,0a.7.7,0,0,0-.17.09,1,1,0,0,0-.17.14,1.55,1.55,0,0,0-.19.23v1a2.16,2.16,0,0,0,.33.34.56.56,0,0,0,.34.12.44.44,0,0,0,.28-.08.69.69,0,0,0,.19-.22,1.32,1.32,0,0,0,.1-.3A1.37,1.37,0,0,0,482.78,369.23Z"/><path class="cls-36" d="M486.06,370.41a1.18,1.18,0,0,1,0,.22.23.23,0,0,1-.05.11l-.08.06-.14,0-.17,0h-.19a1.4,1.4,0,0,1-.43-.06.79.79,0,0,1-.3-.2.88.88,0,0,1-.18-.33,1.65,1.65,0,0,1-.06-.48v-1.52h-.35a.11.11,0,0,1-.1-.08.79.79,0,0,1,0-.26v-.17a.62.62,0,0,1,0-.1.13.13,0,0,1,0-.06h.41v-.67a.14.14,0,0,1,0-.06l.07,0,.13,0h.4l.13,0,.07,0a.14.14,0,0,1,0,.06v.67H486s0,0,0,.06a.25.25,0,0,1,0,.1.86.86,0,0,1,0,.17.79.79,0,0,1,0,.26.11.11,0,0,1-.1.08h-.65v1.4a.69.69,0,0,0,.08.36.29.29,0,0,0,.27.12h.12l.1,0,.07,0H486a.06.06,0,0,1,0,.05.2.2,0,0,1,0,.09A.71.71,0,0,1,486.06,370.41Z"/><path class="cls-36" d="M489.34,369.12a.35.35,0,0,1-.07.23.25.25,0,0,1-.19.07h-1.81a1.25,1.25,0,0,0,0,.35.72.72,0,0,0,.14.26.59.59,0,0,0,.26.17,1,1,0,0,0,.37.05,2.21,2.21,0,0,0,.39,0,1.77,1.77,0,0,0,.29-.07l.2-.07.13,0h.05l0,0a.2.2,0,0,1,0,.09s0,.08,0,.14,0,.09,0,.12a.22.22,0,0,1,0,.09.08.08,0,0,1,0,.06l0,0-.12.07-.25.07-.34.07a2.77,2.77,0,0,1-.42,0,2.09,2.09,0,0,1-.69-.1,1.31,1.31,0,0,1-.5-.3,1.4,1.4,0,0,1-.3-.52,2.3,2.3,0,0,1-.1-.73,2.59,2.59,0,0,1,.1-.71,1.37,1.37,0,0,1,.31-.54,1.32,1.32,0,0,1,.47-.34,1.62,1.62,0,0,1,.64-.12,1.75,1.75,0,0,1,.64.11,1.17,1.17,0,0,1,.44.31,1.36,1.36,0,0,1,.25.46,2.14,2.14,0,0,1,.08.58Zm-.82-.24a.84.84,0,0,0-.14-.55.54.54,0,0,0-.47-.21.64.64,0,0,0-.48.23.67.67,0,0,0-.12.24,1.35,1.35,0,0,0,0,.29Z"/><path class="cls-36" d="M491.94,368a1.21,1.21,0,0,1,0,.2.37.37,0,0,1,0,.12l0,.06h-.12l-.07,0-.1,0h-.11l-.14,0-.14.09a1.2,1.2,0,0,0-.16.16,1.91,1.91,0,0,0-.17.24v1.86a.14.14,0,0,1,0,.06l-.07,0-.13,0h-.41l-.13,0a.15.15,0,0,1-.06,0,.07.07,0,0,1,0-.06v-3a.13.13,0,0,1,0-.06.15.15,0,0,1,.06,0l.12,0h.34l.11,0,.06,0a.13.13,0,0,1,0,.06v.37c.08-.11.16-.2.22-.27a1.54,1.54,0,0,1,.2-.18.52.52,0,0,1,.19-.08.58.58,0,0,1,.19,0h.19l.1,0,.05,0s0,0,0,0,0,0,0,.05a.49.49,0,0,0,0,.11Z"/><text class="cls-3" transform="translate(316.79 234.19)">Sout<tspan class="cls-17" x="12.95" y="0">hw</tspan><tspan x="21.6" y="0">e</tspan><tspan class="cls-6" x="25.04" y="0">s</tspan><tspan x="27.69" y="0">t</tspan><tspan x="6.93" y="6.84">Idaho</tspan><tspan x="3.8" y="13.67">Cha</tspan><tspan class="cls-11" x="14.46" y="13.67">p</tspan><tspan class="cls-12" x="18.11" y="13.67">t</tspan><tspan x="20.39" y="13.67">er</tspan></text><text class="cls-23" transform="translate(370.84 241.58)">CLIMB Idaho</text><text class="cls-19" transform="translate(322.27 263.23)"><tspan class="cls-37">T</tspan><tspan class="cls-6" x="3.03" y="0">r</tspan><tspan x="5.39" y="0">easu</tspan><tspan class="cls-21" x="18.6" y="0">r</tspan><tspan x="20.96" y="0">e </tspan><tspan class="cls-30" x="-4.94" y="6.84">V</tspan><tspan x="-1.28" y="6.84">all</tspan><tspan class="cls-15" x="5.46" y="6.84">e</tspan><tspan x="8.83" y="6.84">y Si</tspan><tspan class="cls-6" x="18.53" y="6.84">s</tspan><tspan class="cls-7" x="21.18" y="6.84">t</tspan><tspan x="23.47" y="6.84">er </tspan><tspan x="1.97" y="13.67">Soci</tspan><tspan class="cls-22" x="13.42" y="13.67">e</tspan><tspan x="16.81" y="13.67">ty</tspan></text><text class="cls-19" transform="translate(462.35 306.15)"><tspan class="cls-38">E</tspan><tspan x="3.25" y="0">a</tspan><tspan class="cls-6" x="6.62" y="0">s</tspan><tspan class="cls-7" x="9.27" y="0">t</tspan><tspan x="11.56" y="0">er Idaho </tspan><tspan x="-1.27" y="6.84">Si</tspan><tspan class="cls-6" x="3.64" y="6.84">s</tspan><tspan class="cls-7" x="6.29" y="6.84">t</tspan><tspan x="8.58" y="6.84">er Soci</tspan><tspan class="cls-22" x="27.45" y="6.84">e</tspan><tspan x="30.84" y="6.84">ty</tspan></text></g></svg>